<svg id="Capa_1" enable-background="new 0 0 512 512" height="512" viewBox="0 0 512 512" width="512" xmlns="http://www.w3.org/2000/svg"><g><path d="m512 256.001c0 58.24-19.45 111.93-52.22 154.94-6.6 8.68-33.5 16.93-41.14 24.69-.48.49-.97.98-1.46 1.45-8.42 8.44-17.44 16.29-26.98 23.47-2.05 1.55-4.13 3.07-6.23 4.55-4.59 3.26-9.29 6.36-14.09 9.3h-247.499c-4.43-2.72-8.77-5.56-13.02-8.54-2.47-1.73-4.9-3.5-7.3-5.31-9.46-7.13-18.41-14.9-26.78-23.27-.56-.53-1.11-1.09-1.66-1.65-7.65-7.77-14.81-16.02-21.42-24.71-32.76-43.01-52.2-96.69-52.2-154.92 0-141.38 114.62-255.999 255.999-255.999s256 114.619 256 255.999z" fill="#80b4fb"/><path d="m377.196 474.4c-6.49 3.98-.746 7.67-7.596 11.06-34.23 16.99-72.8 26.54-113.6 26.54s-79.37-9.55-113.6-26.54c-6.85-3.39-13.53-7.08-20.02-11.06z" fill="#d6d0c4"/><g><path d="m459.78 410.94c-6.6 8.68-13.76 16.93-21.4 24.69-.48.49-.97.98-1.46 1.45l-192.309 13.62-169.33-13.42-20.83-1.65c-3.44 0-6.55-1.39-8.81-3.65-2.26-2.25-3.65-5.36-3.65-8.8 0-6.11 4.4-11.2 10.21-12.26.73-.13 10.366-.2 11.136-.2l180.173-30.09 205.152 30.09c.801 0 10.358.08 11.118.22z" fill="#faf7eb"/><path d="m97.526 431.988c2.26 2.25 5.37 3.64 8.81 3.64h-51.88c-3.44 0-6.55-1.39-8.81-3.64-2.26-2.26-3.65-5.37-3.65-8.81 0-6.88 5.58-12.46 12.46-12.46h51.88c-6.88 0-12.46 5.58-12.46 12.46 0 3.44 1.39 6.55 3.65 8.81z" fill="#ebe6db"/><path d="m438.38 435.63c-8.84 8.98-18.35 17.32-28.44 24.92-2.05 1.55-4.13 3.07-6.23 4.55l-133.48 9.3-28.71 2-25.07-2-107.09-8.54-66.5-5.31c-3.44 0-6.56-1.39-8.81-3.65s-3.65-5.37-3.65-8.81c0-6.88 5.58-12.46 12.46-12.46z" fill="#ebe6db"/><path d="m409.94 460.55c-6.54 4.94-13.32 9.56-20.32 13.85-6.49 3.98-13.17 7.67-20.02 11.06h-340.639c-3.44 0-6.55-1.4-8.8-3.65-2.26-2.25-3.65-5.37-3.65-8.81 0-6.88 5.57-12.45 12.45-12.45z" fill="#faf7eb"/><path d="m72.04 481.812c2.26 2.25 5.37 3.64 8.81 3.64h-51.88c-3.44 0-6.55-1.39-8.81-3.64-2.26-2.26-3.65-5.37-3.65-8.81 0-6.88 5.58-12.46 12.46-12.46h51.88c-6.88 0-12.46 5.58-12.46 12.46 0 3.44 1.39 6.55 3.65 8.81z" fill="#ebe6db"/><path d="m85.936 456.9c2.26 2.25 5.37 3.64 8.81 3.64h-51.88c-3.44 0-6.55-1.39-8.81-3.64-2.26-2.26-3.65-5.37-3.65-8.81 0-6.88 5.58-12.46 12.46-12.46h51.88c-6.88 0-12.46 5.58-12.46 12.46 0 3.44 1.39 6.55 3.65 8.81z" fill="#d6d0c4"/></g><path d="m81.751 139.201h348.499v272.019h-348.499z" fill="#d6d0c4"/><path d="m289.431 294.97v116.25h-66.86v-116.25c0-7.79 6.31-14.1 14.1-14.1h38.65c7.8.001 14.11 6.311 14.11 14.1z" fill="#545058"/><g><g><g><path d="m60.219 189.339h55.656v200.993h-55.656z" fill="#faf7eb"/><g fill="#ebe6db"><path d="m60.219 189.339h13.914v200.993h-13.914z"/><path d="m88.047 189.339h13.914v200.993h-13.914z"/></g></g><path d="m112.756 195.461h-49.418c-9.1 0-16.476-7.377-16.476-16.476 0-9.1 7.377-16.476 16.476-16.476h49.418c9.1 0 16.476 7.377 16.476 16.476 0 9.1-7.377 16.476-16.476 16.476z" fill="#faf7eb"/><path d="m89.489 195.462h-26.159c-9.096 0-16.469-7.381-16.469-16.477 0-4.552 1.841-8.67 4.82-11.649 2.988-2.979 7.105-4.828 11.649-4.828h26.159c-4.544 0-8.669 1.849-11.649 4.828-2.988 2.979-4.829 7.096-4.829 11.649.001 9.096 7.382 16.477 16.478 16.477z" fill="#ebe6db"/><path d="m112.756 411.222h-49.418c-9.1 0-16.476-7.377-16.476-16.476 0-9.1 7.377-16.476 16.476-16.476h49.418c9.1 0 16.476 7.377 16.476 16.476 0 9.099-7.377 16.476-16.476 16.476z" fill="#faf7eb"/><path d="m89.489 411.223h-26.159c-9.096 0-16.469-7.381-16.469-16.477 0-4.552 1.841-8.67 4.82-11.649 2.988-2.979 7.105-4.828 11.649-4.828h26.159c-4.544 0-8.669 1.849-11.649 4.828-2.988 2.979-4.829 7.096-4.829 11.649.001 9.096 7.382 16.477 16.478 16.477z" fill="#ebe6db"/></g><g><g><path d="m149.538 189.339h55.656v200.993h-55.656z" fill="#faf7eb"/><g fill="#ebe6db"><path d="m149.538 189.339h13.914v200.993h-13.914z"/><path d="m177.366 189.339h13.914v200.993h-13.914z"/></g></g><path d="m202.075 195.461h-49.418c-9.1 0-16.476-7.377-16.476-16.476 0-9.1 7.377-16.476 16.476-16.476h49.418c9.1 0 16.476 7.377 16.476 16.476 0 9.1-7.377 16.476-16.476 16.476z" fill="#faf7eb"/><path d="m178.808 195.462h-26.159c-9.096 0-16.469-7.381-16.469-16.477 0-4.552 1.841-8.67 4.82-11.649 2.988-2.979 7.105-4.828 11.649-4.828h26.159c-4.544 0-8.669 1.849-11.649 4.828-2.988 2.979-4.829 7.096-4.829 11.649.001 9.096 7.382 16.477 16.478 16.477z" fill="#ebe6db"/><path d="m202.075 411.222h-49.418c-9.1 0-16.476-7.377-16.476-16.476 0-9.1 7.377-16.476 16.476-16.476h49.418c9.1 0 16.476 7.377 16.476 16.476 0 9.099-7.377 16.476-16.476 16.476z" fill="#faf7eb"/><path d="m178.808 411.223h-26.159c-9.096 0-16.469-7.381-16.469-16.477 0-4.552 1.841-8.67 4.82-11.649 2.988-2.979 7.105-4.828 11.649-4.828h26.159c-4.544 0-8.669 1.849-11.649 4.828-2.988 2.979-4.829 7.096-4.829 11.649.001 9.096 7.382 16.477 16.478 16.477z" fill="#ebe6db"/></g><g><g><path d="m306.806 189.339h55.656v200.993h-55.656z" fill="#faf7eb"/><g fill="#ebe6db"><path d="m306.806 189.339h13.914v200.993h-13.914z"/><path d="m334.634 189.339h13.914v200.993h-13.914z"/></g></g><path d="m359.343 195.461h-49.418c-9.1 0-16.476-7.377-16.476-16.476 0-9.1 7.377-16.476 16.476-16.476h49.418c9.1 0 16.476 7.377 16.476 16.476.001 9.1-7.376 16.476-16.476 16.476z" fill="#faf7eb"/><path d="m336.077 195.462h-26.159c-9.096 0-16.469-7.381-16.469-16.477 0-4.552 1.841-8.67 4.82-11.649 2.988-2.979 7.105-4.828 11.649-4.828h26.159c-4.544 0-8.669 1.849-11.649 4.828-2.988 2.979-4.829 7.096-4.829 11.649.001 9.096 7.382 16.477 16.478 16.477z" fill="#ebe6db"/><path d="m359.343 411.222h-49.418c-9.1 0-16.476-7.377-16.476-16.476 0-9.1 7.377-16.476 16.476-16.476h49.418c9.1 0 16.476 7.377 16.476 16.476.001 9.099-7.376 16.476-16.476 16.476z" fill="#faf7eb"/><path d="m336.077 411.223h-26.159c-9.096 0-16.469-7.381-16.469-16.477 0-4.552 1.841-8.67 4.82-11.649 2.988-2.979 7.105-4.828 11.649-4.828h26.159c-4.544 0-8.669 1.849-11.649 4.828-2.988 2.979-4.829 7.096-4.829 11.649.001 9.096 7.382 16.477 16.478 16.477z" fill="#ebe6db"/></g><g><g><path d="m396.125 189.339h55.656v200.993h-55.656z" fill="#faf7eb"/><g fill="#ebe6db"><path d="m396.125 189.339h13.914v200.993h-13.914z"/><path d="m423.953 189.339h13.914v200.993h-13.914z"/></g></g><path d="m448.662 195.461h-49.418c-9.1 0-16.476-7.377-16.476-16.476 0-9.1 7.377-16.476 16.476-16.476h49.418c9.1 0 16.476 7.377 16.476 16.476.001 9.1-7.376 16.476-16.476 16.476z" fill="#faf7eb"/><path d="m425.396 195.462h-26.159c-9.096 0-16.469-7.381-16.469-16.477 0-4.552 1.841-8.67 4.82-11.649 2.988-2.979 7.105-4.828 11.649-4.828h26.159c-4.544 0-8.669 1.849-11.649 4.828-2.988 2.979-4.828 7.096-4.828 11.649 0 9.096 7.381 16.477 16.477 16.477z" fill="#ebe6db"/><path d="m448.662 411.222h-49.418c-9.1 0-16.476-7.377-16.476-16.476 0-9.1 7.377-16.476 16.476-16.476h49.418c9.1 0 16.476 7.377 16.476 16.476.001 9.099-7.376 16.476-16.476 16.476z" fill="#faf7eb"/><path d="m425.396 411.223h-26.159c-9.096 0-16.469-7.381-16.469-16.477 0-4.552 1.841-8.67 4.82-11.649 2.988-2.979 7.105-4.828 11.649-4.828h26.159c-4.544 0-8.669 1.849-11.649 4.828-2.988 2.979-4.828 7.096-4.828 11.649 0 9.096 7.381 16.477 16.477 16.477z" fill="#ebe6db"/></g></g><g><path d="m252.826 30.131 217.174 113.63v4.049c0 8.394-6.805 15.199-15.199 15.199h-397.605c-8.394 0-15.199-6.805-15.199-15.199v-4.049z" fill="#ebe6db"/><path d="m483.734 149.415-227.733-93.758-227.733 93.758c-6.568 2.704-14.085-.428-16.789-6.996l-10.506-25.518c-2.704-6.568.428-14.085 6.996-16.789l238.662-98.257c6.002-2.471 12.737-2.471 18.74 0l238.661 98.258c6.568 2.704 9.701 10.221 6.996 16.789l-10.506 25.517c-2.704 6.568-10.22 9.7-16.788 6.996z" fill="#faf7eb"/><path d="m28.91 123.552 9.01 21.89-9.65 3.97c-6.57 2.71-14.09-.42-16.79-6.99l-10.51-25.52c-2.7-6.57.43-14.08 7-16.79l238.659-98.26c6-2.47 12.74-2.47 18.74 0l13.14 5.41c-1.34.29-2.66.71-3.95 1.24l-238.659 98.26c-6.57 2.71-9.7 10.22-6.99 16.79z" fill="#ebe6db"/></g><g><g fill="#eebe61"><path d="m179.069 108.553c-.584 0-1.177-.096-1.759-.297-2.81-.971-4.3-4.037-3.329-6.847l21.483-62.147c.75-2.169 2.793-3.625 5.088-3.625 2.295 0 4.338 1.455 5.088 3.625l21.482 62.146c.971 2.81-.519 5.875-3.329 6.847-2.811.971-5.876-.519-6.847-3.329l-16.395-47.427-16.395 47.427c-.769 2.228-2.856 3.627-5.087 3.627z"/><path d="m331.47 108.553c-2.232 0-4.318-1.398-5.088-3.626l-16.395-47.427-16.395 47.427c-.971 2.81-4.039 4.3-6.847 3.329-2.81-.971-4.3-4.037-3.329-6.847l21.484-62.146c.75-2.169 2.793-3.625 5.088-3.625s4.338 1.455 5.088 3.625l21.483 62.147c.971 2.81-.519 5.875-3.329 6.847-.583.2-1.176.296-1.76.296z"/><path d="m255.821 11.787c-3.814 0-6.905 3.092-6.905 6.905v119.579h13.81v-119.579c0-3.813-3.092-6.905-6.905-6.905z"/></g><path d="m340.604 96.263h-61.379c0 16.102 13.053 29.155 29.155 29.155h3.069c16.102 0 29.155-13.053 29.155-29.155z" fill="#f5dd62"/><path d="m311.255 50.996h-110.869c-6.144 0-11.125-4.981-11.125-11.125 0-6.144 4.981-11.125 11.125-11.125h110.869c6.144 0 11.125 4.981 11.125 11.125 0 6.144-4.981 11.125-11.125 11.125z" fill="#f5dd62"/><path d="m222.892 50.999h-22.502c-6.145 0-11.128-4.984-11.128-11.128 0-3.076 1.246-5.853 3.261-7.868 2.015-2.007 4.791-3.253 7.868-3.253h22.503c-3.076 0-5.853 1.246-7.868 3.253-2.015 2.015-3.261 4.791-3.261 7.868-.001 6.144 4.983 11.128 11.127 11.128z" fill="#eebe61"/><path d="m232.775 96.263h-61.379c0 16.102 13.053 29.155 29.155 29.155h3.069c16.102 0 29.155-13.053 29.155-29.155z" fill="#f5dd62"/><path d="m212.318 124.103c-2.753.854-5.668 1.315-8.698 1.315h-3.069c-8.052 0-15.343-3.261-20.619-8.537s-8.537-12.567-8.537-20.619h20.465c0 8.052 3.261 15.343 8.537 20.619 3.292 3.292 7.368 5.799 11.921 7.222z" fill="#eebe61"/><path d="m320.147 124.103c-2.753.854-5.668 1.315-8.698 1.315h-3.069c-8.052 0-15.343-3.261-20.619-8.537s-8.537-12.567-8.537-20.619h20.465c0 8.052 3.261 15.343 8.537 20.619 3.292 3.292 7.368 5.799 11.921 7.222z" fill="#eebe61"/><path d="m233.097 49.205c0 12.55 10.174 22.724 22.724 22.724s22.724-10.174 22.724-22.724" fill="#f5dd62"/><circle cx="255.821" cy="49.205" fill="#eebe61" r="9.207"/><path d="m279.539 134.546h-47.437c-4.792 0-8.676 3.884-8.676 8.676 0 4.792 3.884 8.676 8.676 8.676h47.437c4.792 0 8.676-3.884 8.676-8.676 0-4.792-3.884-8.676-8.676-8.676z" fill="#eebe61"/></g></g></svg>