<?xml version="1.0"?>
<svg xmlns="http://www.w3.org/2000/svg" xmlns:xlink="http://www.w3.org/1999/xlink" xmlns:svgjs="http://svgjs.com/svgjs" version="1.1" width="512" height="512" x="0" y="0" viewBox="0 0 512 512" style="enable-background:new 0 0 512 512" xml:space="preserve" class=""><g><g xmlns="http://www.w3.org/2000/svg"><g><g><g><g><g><g><circle cx="256" cy="256" fill="#f9ae17" r="256" data-original="#ffce00" style="" class=""/></g></g></g></g></g></g><path d="m255.537 511.999c.154 0 .309.001.463.001 132.131 0 240.882-100.104 254.552-228.608l-189.965-189.965z" fill="#f9ae17" data-original="#ffa300" style="" class=""/><g><g><g><g><g><ellipse cx="255.999" cy="163.559" fill="#e09380" rx="95.345" ry="95.344" transform="matrix(.167 -.986 .986 .167 52.079 388.735)" data-original="#e09380" style="" class=""/></g></g></g></g><g><g><g><g><path d="m351.343 163.559c0-52.657-42.687-95.344-95.343-95.344v190.689c52.656-.001 95.343-42.688 95.343-95.345z" fill="#d47f6c" data-original="#d47f6c" style="" class=""/></g></g></g></g><g><path d="m256 512c65.352 0 124.983-24.488 170.221-64.788l-35.083-109.012-3.872-12.187c-12.819-40.342-50.279-67.745-92.608-67.745h-.023-77.269c-42.27 0-79.691 27.327-92.559 67.591l-3.943 12.34-35.085 109.013c45.238 40.3 104.869 64.788 170.221 64.788z" fill="#555a66" data-original="#555a66" style="" class=""/></g><g><path d="m391.138 338.2-3.872-12.187c-12.819-40.342-50.279-67.745-92.608-67.745h-.023-38.635v253.732c65.352 0 124.983-24.488 170.221-64.788z" fill="#333940" data-original="#333940" style="" class=""/></g></g><g><path d="m337.198 381.962-53.579-117.458-27.619 16.683-27.619-16.683-53.579 117.458 37.367 22.572 43.831-96.088 43.831 96.088z" fill="#ffffff" data-original="#ffffff" style="" class=""/></g><g><path d="m283.619 264.503-27.619 16.684v27.259l43.831 96.088 37.367-22.572z" fill="#e9edf5" data-original="#e9edf5" style="" class=""/></g><g><path d="m313.741 233.09-57.741 22.684-57.741-22.684v64.726l57.741-16.135 57.741 16.135z" fill="#ffffff" data-original="#ffffff" style="" class=""/></g><g><path d="m256 255.774v25.908l57.741 16.134v-64.726z" fill="#e9edf5" data-original="#e9edf5" style="" class=""/></g></g></g></svg>
