<svg id="Capa_1" enable-background="new 0 0 512 512" height="512" viewBox="0 0 512 512" width="512" xmlns="http://www.w3.org/2000/svg"><g><g><g><g><g><g><g><g><g><circle cx="256" cy="256" fill="#a3d4ff" r="256"/></g></g></g></g></g></g></g></g><path d="m512 256c0-11.503-.759-22.828-2.229-33.929l-72.004-72.003-5.508 7.525-21.709-21.709-336.18 121.133 78.26 78.26-70.586 42.744 130.266 130.266c14.197 2.441 28.795 3.713 43.69 3.713 141.385 0 256-114.615 256-256z" fill="#65b1fc"/><g><path d="m404.239 150.067h-319.118l-10.751 106.95h13.414l-13.263 96.521c-2.512 18.284 11.696 34.578 30.151 34.578h51.412c15.208 0 28.081-11.226 30.151-26.292l6.824-49.666h38.146c17.74 0 33.61-11.891 38.594-28.917l7.676-26.225h89.562zm-163.231 124.747c-1.266 4.324-5.296 7.344-9.802 7.344h-34.024l3.455-25.142h45.58z" fill="#636978"/></g><g><path d="m255.818 150.067v153.602c6.545-5.075 11.556-12.14 13.982-20.428l7.676-26.225h89.562l37.201-106.949z" fill="#414952"/></g><g><path d="m402.118 150.067h35.65v51.75h-35.65z" fill="#414952"/></g><g><path d="m106.861 135.884h303.69v91.999h-303.69z" fill="#707789"/></g><g><path d="m255.818 135.884h154.733v92h-154.733z" fill="#555a66"/></g></g></svg>