<svg id="Capa_1" enable-background="new 0 0 512 512" height="512" viewBox="0 0 512 512" width="512" xmlns="http://www.w3.org/2000/svg"><g><path d="m512 256c0 80.89-37.52 153.03-96.12 199.94-6.837 5.478-17.928-4.762-25.313 0-8.266 5.33-12.894 25.568-21.777 29.93-18.93 9.31-39.18 16.35-60.39 20.76-16.91 3.52-47.591-32.956-65.551-32.956-44.28 0-19.786-34.182-56.116-53.962-23.09-12.58-97.033 32.648-115.123 13.868-44.34-46.03-71.61-108.62-71.61-177.58 0-141.38 114.62-256 256-256s256 114.62 256 256z" fill="#80b4fb"/><g><path d="m381.312 374.952c-6.918 0-12.526 5.608-12.526 12.526v41.537h25.051v-41.537c0-6.918-5.608-12.526-12.525-12.526z" fill="#ebb99a"/><path d="m362.468 377.483c-5.326 0-9.644-4.318-9.644-9.644v-42.565c0-5.326 4.318-9.644 9.644-9.644 5.326 0 9.644 4.318 9.644 9.644v42.565c-.001 5.327-4.318 9.644-9.644 9.644z" fill="#9d6b6b"/><path d="m446.711 377.483c-5.326 0-9.644-4.318-9.644-9.644v-42.565c0-5.326 4.318-9.644 9.644-9.644 5.326 0 9.644 4.318 9.644 9.644v42.565c0 5.327-4.318 9.644-9.644 9.644z" fill="#9d6b6b"/><path d="m372.108 347.443v20.4c0 5.33-4.32 9.64-9.64 9.64-5.33 0-9.65-4.31-9.65-9.64v-20.4c0 5.33 4.32 9.65 9.65 9.65 5.32 0 9.64-4.32 9.64-9.65z" fill="#8b5e5e"/><path d="m456.348 347.443v20.4c0 5.33-4.31 9.64-9.64 9.64s-9.64-4.31-9.64-9.64v-20.4c0 5.33 4.31 9.65 9.64 9.65s9.64-4.32 9.64-9.65z" fill="#8b5e5e"/><path d="m408.026 459.042-39.24 16.184v-67.557h39.24z" fill="#f0cfba"/><path d="m390.567 469.351-21.781 5.875v-67.557h21.781z" fill="#ebb99a"/><path d="m410.089 451.505h-9.891c-3.513 0-6.361-2.848-6.361-6.361v-99.609h22.613v99.609c0 3.513-2.848 6.361-6.361 6.361z" fill="#9d6b6b"/><path d="m408.177 451.504h-7.98c-3.52 0-6.36-2.84-6.36-6.36v-99.61h7.98v99.61c0 3.52 2.84 6.36 6.36 6.36z" fill="#8b5e5e"/><g><path d="m341.127 184.556c-16.188 0-29.31-13.123-29.31-29.31s13.123-29.31 29.31-29.31h36.007v58.62z" fill="#ebe6db"/><circle cx="377.135" cy="155.246" fill="#faf7eb" r="29.31"/><circle cx="377.135" cy="155.246" fill="#ebe6db" r="16.295"/></g><path d="m241.622 0h-50.985c-66.451 0-120.321 53.87-120.321 120.321v83.33l291.627-36.528v-46.802c0-66.451-53.869-120.321-120.321-120.321z" fill="#faf7eb"/><path d="m258.026 1.121c-58.69 8-103.91 58.32-103.91 119.2v72.83l-83.8 10.5v-83.33c0-66.45 53.87-120.32 120.32-120.32h50.98c5.57 0 11.05.38 16.41 1.12z" fill="#ebe6db"/><g><path d="m341.127 301.797c-16.188 0-29.31-13.123-29.31-29.31s13.123-29.31 29.31-29.31h36.007v58.62z" fill="#ebe6db"/><circle cx="377.135" cy="272.487" fill="#faf7eb" r="29.31"/><circle cx="377.135" cy="272.487" fill="#ebe6db" r="16.295"/></g><g><path d="m341.127 243.177c-16.188 0-29.31-13.123-29.31-29.31s13.123-29.31 29.31-29.31h36.007v58.62z" fill="#ebe6db"/><circle cx="377.135" cy="213.867" fill="#faf7eb" r="29.31"/><circle cx="377.135" cy="213.867" fill="#ebe6db" r="16.295"/></g><path d="m308.4 469.84v36.79c-16.91 3.52-34.44 5.37-52.4 5.37-72.42 0-137.83-30.08-184.39-78.42 14.68-39.23 52.52-67.15 96.87-67.15h36.51c57.12 0 103.41 46.3 103.41 103.41z" fill="#545058"/><path d="m221.06 367.68c-49.47 7.72-87.33 50.52-87.33 102.16v11.13c-23.09-12.58-44.03-28.61-62.12-47.39 14.69-39.23 52.53-67.15 96.87-67.15h36.51c5.47 0 10.83.43 16.07 1.25z" fill="#423f46"/><path d="m245.356 496.889c-37.823 13.906-79.412 13.906-117.235 0-11.437-4.205-16.525-17.554-10.823-28.323l34.005-64.224c22.166 11.736 48.705 11.736 70.871 0 11.335 21.408 22.67 42.816 34.005 64.224 5.702 10.769.615 24.118-10.823 28.323z" fill="#ebe6db"/><path d="m245.356 449.257c-37.823 13.906-79.412 13.906-117.235 0-11.437-4.205-16.525-17.554-10.823-28.323 11.335-21.408 22.67-42.816 34.005-64.224 22.166 11.736 48.705 11.736 70.871 0 11.335 21.408 22.67 42.816 34.005 64.223 5.702 10.77.615 24.119-10.823 28.324z" fill="#faf7eb"/><path d="m148.165 323.281v57.863c0 21.305 17.264 38.569 38.569 38.569s38.578-17.264 38.578-38.569v-57.863z" fill="#f0cfba"/><path d="m198.72 417.807c-3.773 1.237-7.804 1.904-11.987 1.904-21.304 0-38.568-17.264-38.568-38.568v-57.861h23.965v57.861c0 17.122 11.151 31.637 26.59 36.664z" fill="#ebb99a"/><path d="m148.165 323.281v51.299c10.884 2.813 22.31 4.311 34.074 4.311h43.073v-55.61z" fill="#ebb99a"/><path d="m384.21 236.75c0 33.13-13.43 63.12-35.14 84.83s-51.69 35.14-84.82 35.14h-79.46c-66.26 0-119.97-53.71-119.97-119.97 0-33.04 13.36-62.96 34.97-84.65l-.37 19.44s33.71-1.14 69.84-10.11c30.99-7.7 63.78-21.17 78.52-44.64 0 0 39.45 42.4 114.15 50.33h.01c14.02 19.63 22.27 43.66 22.27 69.63z" fill="#f0cfba"/><path d="m262.68 356.72h-77.89c-66.26 0-119.97-53.71-119.97-119.97 0-33.04 13.36-62.96 34.97-84.65l-.37 19.44s33.71-1.14 69.84-10.11c.01.01.03.02.04.03-16.63 20.58-26.59 46.77-26.59 75.3 0 33.12 13.43 63.11 35.13 84.83 21.72 21.7 51.7 35.13 84.84 35.13z" fill="#ebb99a"/><path d="m269.23 211.726c0 10.451 3.481 20.089 9.357 27.807 3.828-5.046 8.675-9.274 14.237-12.38 6.621-3.698 5.434-16.763 13.561-16.763 3.466 0 15.662 11.342 18.909 12.069 10.758 2.407 20.089 8.583 26.537 17.075 5.876-7.717 9.357-17.356 9.357-27.807 0-25.395-20.588-45.983-45.983-45.983s-45.975 20.587-45.975 45.982z" fill="#faf7eb"/><path d="m286.103 211.726c0 6.094 2.589 11.576 6.721 15.427 6.624-3.698 14.253-5.804 22.38-5.804 3.465 0 6.841.386 10.089 1.109 1.865-3.143 2.934-6.809 2.934-10.732 0-11.632-9.43-21.062-21.062-21.062s-21.062 9.43-21.062 21.062z" fill="#545058"/><path d="m143.045 211.724c0 10.448 3.483 20.085 9.359 27.806 5.081-6.679 11.943-11.927 19.879-15.036 5.192-2.028 10.838-20.986 16.746-20.986s11.553 18.958 16.746 20.986c7.936 3.109 14.798 8.357 19.879 15.036 5.876-7.721 9.359-17.358 9.359-27.806 0-25.389-20.586-45.975-45.983-45.975s-45.985 20.586-45.985 45.975z" fill="#faf7eb"/><path d="m167.964 211.724c0 4.803 1.606 9.232 4.318 12.77 5.192-2.028 10.838-3.141 16.746-3.141s11.553 1.113 16.746 3.141c2.711-3.538 4.318-7.967 4.318-12.77 0-11.633-9.43-21.055-21.063-21.055s-21.065 9.422-21.065 21.055z" fill="#545058"/><path d="m295.512 247.133c-11.768 11.768-30.846 11.768-42.614 0l-5.226-5.226 21.307-21.307c7.327-7.327 19.206-7.327 26.533 0 7.327 7.327 7.327 19.206 0 26.533z" fill="#ebb99a"/><g><path d="m63.409 301.797c-16.187 0-29.31-13.123-29.31-29.31s13.123-29.31 29.31-29.31h36.007v58.62z" fill="#ebe6db"/><circle cx="99.417" cy="272.487" fill="#faf7eb" r="29.31"/><circle cx="99.417" cy="272.487" fill="#ebe6db" r="16.295"/></g><g><path d="m63.409 243.177c-16.187 0-29.31-13.123-29.31-29.31s13.123-29.31 29.31-29.31h36.007v58.62z" fill="#ebe6db"/><circle cx="99.417" cy="213.867" fill="#faf7eb" r="29.31"/><circle cx="99.417" cy="213.867" fill="#ebe6db" r="16.295"/></g><g><path d="m63.409 184.556c-16.187 0-29.31-13.123-29.31-29.31s13.123-29.31 29.31-29.31h36.007v58.62z" fill="#ebe6db"/><circle cx="99.417" cy="155.246" fill="#faf7eb" r="29.31"/><circle cx="99.417" cy="155.246" fill="#ebe6db" r="16.295"/></g><path d="m415.06 443.302h-20.054c-14.481 0-26.22-11.739-26.22-26.22v-9.412c0-14.481 11.739-26.22 26.22-26.22h20.054c14.481 0 26.22 11.739 26.22 26.22v9.412c0 14.481-11.739 26.22-26.22 26.22z" fill="#f0cfba"/><path d="m416.556 443.259c-.5.03-1 .04-1.5.04h-20.05c-14.48 0-26.22-11.74-26.22-26.22v-9.41c0-14.48 11.74-26.22 26.22-26.22h20.05c.5 0 1 .01 1.5.04-13.79.77-24.73 12.2-24.73 26.18v9.41c0 13.98 10.94 25.41 24.73 26.18z" fill="#ebb99a"/><path d="m415.88 455.94c-14.49 11.61-30.27 21.67-47.09 29.93v-29.93z" fill="#545058"/><path d="m420.83 377.483h-32.48c-10.07 0-18.233-8.163-18.233-18.233v-25.386c0-10.07 8.163-18.233 18.233-18.233h32.48c10.07 0 18.233 8.163 18.233 18.233v25.386c0 10.07-8.163 18.233-18.233 18.233z" fill="#9d6b6b"/><path d="m439.058 338.853v20.4c0 10.07-8.16 18.23-18.23 18.23h-32.48c-10.07 0-18.23-8.16-18.23-18.23v-20.4c0 10.07 8.16 18.24 18.23 18.24h32.48c10.07 0 18.23-8.17 18.23-18.24z" fill="#8b5e5e"/><path d="m221.47 273.283c1.919 0 3.839.732 5.303 2.197 6.541 6.541 17.184 6.541 23.725 0 2.929-2.928 7.678-2.929 10.606 0 2.929 2.929 2.929 7.678 0 10.607-12.39 12.389-32.548 12.389-44.937 0-2.929-2.929-2.929-7.678 0-10.607 1.464-1.465 3.383-2.197 5.303-2.197z" fill="#ebb99a"/></g></g></svg>