<svg id="Capa_1" enable-background="new 0 0 512 512" height="512" viewBox="0 0 512 512" width="512" xmlns="http://www.w3.org/2000/svg"><g><path d="m512 256c0 11.95-.82 23.71-2.41 35.22-.92 6.74-2.11 13.39-3.55 19.95-6.62 30.12-18.54 58.25-34.74 83.36-4.43 6.89-9.19 13.54-14.25 19.95-6.37 8.07-13.23 15.75-20.51 23-4.085 4.069-8.307-6.83-12.656-3.046-3.881 3.377-7.865 21.465-11.944 24.606-22.9 17.61-48.86 31.44-76.94 40.54-19.55 6.33-40.791-17.037-62.091-15.597-5.81.4-11.67.6-17.57.6-2.8 0-5.59-.05-8.36-.14-5.59-.17-11.14-.53-16.63-1.06-23.84-2.32-35.732-9.29-57.202-17.69-1.29-.5-2.57-1.02-3.84-1.54-20.52-8.4-28.934-6.563-46.374-19.743-2.26-1.7-25.593 12.52-27.793 10.74-14.87-12.02-28.36-25.66-40.19-40.67-5.07-6.41-9.83-13.06-14.26-19.95-16.2-25.11-28.11-53.24-34.73-83.36-1.44-6.56-2.63-13.21-3.55-19.95-1.59-11.51-2.41-23.27-2.41-35.22 0-16.46 1.55-32.55 4.52-48.14 1.28-6.75 2.83-13.4 4.64-19.95 8.37-30.43 22.23-58.6 40.43-83.36 5.09-6.93 10.51-13.58 16.26-19.95 46.85-51.95 114.69-84.6 190.15-84.6s143.3 32.65 190.15 84.6c5.75 6.37 11.17 13.02 16.26 19.95 18.2 24.76 32.06 52.93 40.43 83.36 1.81 6.55 3.36 13.2 4.64 19.95 2.97 15.59 4.52 31.68 4.52 48.14z" fill="#9d6b6b"/><g fill="#8b5e5e"><path d="m462.41 104.55h-412.82c5.09-6.93 10.51-13.58 16.26-19.95h380.3c5.75 6.37 11.17 13.02 16.26 19.95z"/><path d="m507.48 207.86h-502.96c1.28-6.75 2.83-13.4 4.64-19.95h493.68c1.81 6.55 3.36 13.2 4.64 19.95z"/><path d="m509.59 291.22c-.92 6.74-2.11 13.39-3.55 19.95h-500.08c-1.44-6.56-2.63-13.21-3.55-19.95z"/><path d="m471.3 394.53c-4.43 6.89-9.19 13.54-14.25 19.95h-402.1c-5.07-6.41-9.83-13.06-14.26-19.95z"/></g><g><path d="m335 460.37-12.21 15.3 12.21 17.29v6.62c-19.55 6.334-40.132 10.382-61.43 11.826-5.806.394-11.665-7.582-17.57-7.582-8.22 0-16.349 7.788-24.371 7.03-24.065-2.273-47.159-7.88-68.819-16.355-1.29-.5-2.57-1.02-3.84-1.54-11.343-4.643-1.967-13.787-12.426-19.951-8.462-4.987-36.924-6.744-44.723-12.639-2.26-1.7-4.48-3.44-6.68-5.22v-19.92c0-5.25.4-10.4 1.16-15.43.89-5.82 23.15-11.28 24.97-16.72 1.82-5.45-16.8-10.88-14.13-15.87 17.16-32.09 50.99-53.92 89.93-53.92h35.99c38.94 0 72.77 21.83 89.94 53.92 3.55 6.64-23.52 13.72-21.49 21.14 1.02 3.73 31.74 7.56 32.33 11.45.76 5.03 1.16 10.18 1.16 15.43v25.141z" fill="#faf7eb"/><path d="m248.91 334.52c-48.78 7.61-86.1 49.8-86.1 100.71v59.27c-1.285-.502-2.566-1.015-3.841-1.537-9.076-3.719-3.905-15.255-12.425-19.954-10.74-5.923-34.997-5.286-44.725-12.637-2.256-1.704-4.482-3.445-6.678-5.222v-19.92c0-5.83.49-11.56 1.43-17.12.87-5.15 23.09-10.18 24.7-15.03 1.83-5.52-16.84-10.82-14.14-15.87 17.17-32.09 51.01-53.91 89.94-53.91h35.99c5.389 0 10.679.42 15.849 1.22z" fill="#ebe6db"/><circle cx="93.564" cy="213.601" fill="#ebb99a" r="44.749"/><path d="m73.601 213.598c0 5.732 2.412 10.902 6.285 14.536.529-4.881 4.666-8.68 9.688-8.68 5.377 0 9.737 4.361 9.737 9.746 0 1.321-.264 2.585-.743 3.741 8.606-2.23 14.957-10.043 14.957-19.343 0-11.026-8.936-19.962-19.962-19.962s-19.962 8.937-19.962 19.962z" fill="#dc9e80"/><path d="m177.044 290.758v57.039c0 21.001 17.018 38.02 38.02 38.02 21.001 0 38.029-17.018 38.029-38.02v-57.039z" fill="#f0cfba"/><path d="m226.879 383.938c-3.719 1.219-7.693 1.877-11.816 1.877-21.001 0-38.019-17.018-38.019-38.019v-57.037h23.624v57.037c0 16.878 10.992 31.186 26.211 36.142z" fill="#ebb99a"/><path d="m177.044 290.758v50.569c10.729 2.773 21.992 4.25 33.589 4.25h42.46v-54.819z" fill="#ebb99a"/><path d="m213.141 87.206h78.331c65.31 0 118.255 52.944 118.255 118.255 0 65.31-52.944 118.255-118.255 118.255h-78.331c-65.31 0-118.255-52.944-118.255-118.255 0-65.31 52.945-118.255 118.255-118.255z" fill="#f0cfba"/><path d="m206.29 289.082c21.404 21.395 50.965 34.634 83.627 34.634h-76.776c-32.654 0-62.215-13.238-83.618-34.634-21.395-21.404-34.634-50.965-34.634-83.618 0-65.307 52.945-118.252 118.252-118.252h76.776c-65.316 0-118.261 52.945-118.261 118.252 0 32.653 13.239 62.214 34.634 83.618z" fill="#ebb99a"/><path d="m301.385 180.791c0 10.302 3.431 19.803 9.224 27.411 3.773-4.974 8.552-9.142 14.034-12.204 6.527-3.645 5.357-16.524 13.368-16.524 3.417 0 15.439 11.181 18.639 11.897 10.605 2.373 19.803 8.461 26.159 16.831 5.793-7.608 9.224-17.109 9.224-27.411 0-25.033-20.295-45.328-45.328-45.328s-45.32 20.295-45.32 45.328z" fill="#faf7eb"/><path d="m318.019 180.791c0 6.007 2.552 11.411 6.625 15.207 6.53-3.645 14.05-5.721 22.062-5.721 3.415 0 6.744.38 9.945 1.094 1.839-3.098 2.892-6.712 2.892-10.579 0-11.467-9.295-20.762-20.762-20.762-11.467-.001-20.762 9.295-20.762 20.761z" fill="#545058"/><path d="m176.997 180.789c0 10.299 3.433 19.799 9.226 27.41 5.009-6.584 11.773-11.757 19.596-14.822 5.118-1.999 10.683-20.687 16.507-20.687s11.389 18.688 16.507 20.687c7.823 3.065 14.587 8.238 19.596 14.822 5.792-7.611 9.226-17.111 9.226-27.41 0-25.027-20.293-45.321-45.328-45.321s-45.33 20.294-45.33 45.321z" fill="#faf7eb"/><path d="m201.562 180.789c0 4.734 1.583 9.1 4.256 12.588 5.118-1.999 10.683-3.096 16.507-3.096s11.389 1.097 16.507 3.096c2.673-3.488 4.256-7.854 4.256-12.588 0-11.467-9.296-20.756-20.763-20.756s-20.763 9.289-20.763 20.756z" fill="#545058"/><path d="m322.293 215.694c-11.6 11.6-30.407 11.6-42.007 0l-5.152-5.152 21.004-21.004c7.223-7.223 18.933-7.223 26.155 0 7.223 7.223 7.223 18.934 0 26.156z" fill="#ebb99a"/><path d="m279.753 255.228c-1.919 0-3.839-.732-5.303-2.197-6.541-6.541-17.184-6.541-23.725 0-2.929 2.928-7.678 2.929-10.606 0-2.929-2.929-2.929-7.678 0-10.607 12.39-12.389 32.548-12.389 44.938 0 2.929 2.929 2.929 7.678 0 10.607-1.465 1.465-3.385 2.197-5.304 2.197z" fill="#ebb99a"/><path d="m379.83 49.24v77.39h-37.14l-17.843-6.78-17.307 6.78h-37.45l-10.865-6.78-24.286 6.78h-37.45l-21.178-6.78-13.982 6.78h-37.129v-77.39c0-21.92 16.1-40.07 37.13-43.28 2.17-.33 7.288 7.034 9.548 7.034l25.612-7.534h37.45l15.861 8.421 19.289-8.421h37.45l19.967 17.732c2.26 0 13.013-17.562 15.183-17.232 21.02 3.2 37.14 21.36 37.14 43.28z" fill="#faf7eb"/><path d="m228.19 5.46c-2.26 0-4.49.17-6.66.5-21.03 3.21-37.13 21.36-37.13 43.28v77.39h-59.2v-77.39c0-21.92 16.1-40.07 37.13-43.28 2.17-.33 15.269 41.618 17.529 41.618l17.631-42.118z" fill="#ebe6db"/><g><path d="m197.49 5.46v121.17h-35.16v-120.67c2.17-.33 4.4-.5 6.66-.5z" fill="#545058"/><path d="m197.49 5.46v12.55c-8.08 7.95-13.09 19-13.09 31.23v77.39h-22.07v-120.67c2.17-.33 4.4-.5 6.66-.5z" fill="#423f46"/><g fill="#545058"><path d="m234.94 5.46h35.15v121.17h-35.15z"/><path d="m342.69 5.96v120.67h-35.15v-121.17h28.5c2.26 0 4.48.17 6.65.5z"/></g></g><g fill="#d9a184"><circle cx="137.416" cy="146.619" r="8.48"/><circle cx="167.161" cy="143.128" r="8.48"/><circle cx="151.908" cy="165.647" r="8.48"/></g><path d="m333.84 419.8h-237.54c1.77-11.63 5.49-22.61 10.84-32.59h215.86c5.34 9.98 9.07 20.96 10.84 32.59z" fill="#545058"/><path d="m335 460.37v32.59h-172.19l-10.946-32.59z" fill="#545058"/><path d="m162.81 460.37v32.59h-3.84c-20.52-8.4-39.71-19.41-57.15-32.59z" fill="#423f46"/><path d="m174.81 387.21c-5.35 9.99-9.07 20.97-10.83 32.59h-67.68c1.77-11.63 5.49-22.61 10.84-32.59z" fill="#423f46"/></g><path d="m394.457 460.37h-118.986c-6.334 0-11.469-5.135-11.469-11.469v-84.183c0-6.334 5.135-11.469 11.469-11.469h118.986c6.334 0 11.469 5.135 11.469 11.469v84.183c0 6.334-5.135 11.469-11.469 11.469z" fill="#80b4fb"/><path d="m286.232 460.368h-10.76c-6.34 0-11.47-5.13-11.47-11.47v-84.18c0-6.34 5.13-11.47 11.47-11.47h10.76c-6.34 0-11.47 5.13-11.47 11.47v84.18c0 6.34 5.13 11.47 11.47 11.47z" fill="#61a2f9"/><path d="m436.54 411.16v26.32c-7.73 7.7-15.95 14.9-24.6 21.56v-47.88z" fill="#ebb99a"/><g fill="#faf7eb"><path d="m349.519 420.066c-.023 0-.045 0-.068 0-3.266.041-6.708.07-9.757.083 2.051-2.768 4.735-6.467 8.181-11.391 2.54-3.628 4.2-7.073 4.933-10.239.04-.173.072-.347.094-.523l.191-1.499c.028-.221.042-.443.042-.666 0-8.367-6.807-15.174-15.174-15.174-7.235 0-13.496 5.147-14.889 12.239-.56 2.851 1.298 5.617 4.149 6.177 2.854.561 5.618-1.297 6.177-4.149.426-2.169 2.345-3.744 4.563-3.744 2.473 0 4.502 1.94 4.643 4.379l-.103.81c-.336 1.295-1.177 3.395-3.248 6.354-6.125 8.752-9.78 13.537-11.743 16.108-2.455 3.214-3.807 4.985-2.927 7.847.523 1.702 1.809 3.007 3.528 3.579.697.233 1.289.43 8.922.43 2.973 0 7.017-.03 12.55-.1 2.906-.037 5.231-2.422 5.194-5.327-.034-2.882-2.383-5.194-5.258-5.194z"/><path d="m312.023 420.066c-3.266.041-6.708.07-9.757.083 2.051-2.768 4.735-6.467 8.181-11.392 2.54-3.63 4.2-7.074 4.933-10.238.04-.173.072-.347.094-.523l.191-1.499c.028-.221.042-.443.042-.666 0-8.367-6.807-15.174-15.174-15.174-7.235 0-13.496 5.147-14.889 12.239-.56 2.851 1.298 5.617 4.149 6.177 2.853.561 5.617-1.297 6.177-4.149.426-2.169 2.345-3.744 4.563-3.744 2.473 0 4.502 1.94 4.643 4.379l-.103.81c-.336 1.294-1.177 3.394-3.248 6.354-6.125 8.752-9.78 13.537-11.743 16.108-2.455 3.214-3.807 4.985-2.927 7.847.523 1.702 1.809 3.007 3.528 3.579.697.233 1.289.43 8.922.43 2.973 0 7.017-.03 12.55-.1 2.906-.037 5.231-2.422 5.194-5.327-.035-2.905-2.44-5.215-5.326-5.194z"/><path d="m388.22 401.434c1.387-2.113 2.2-4.634 2.2-7.345 0-7.405-6.024-13.429-13.429-13.429s-13.429 6.024-13.429 13.429c0 2.71.814 5.232 2.2 7.344-3.218 3.007-5.236 7.284-5.236 12.025 0 9.078 7.386 16.464 16.464 16.464s16.464-7.386 16.464-16.464c.001-4.74-2.016-9.017-5.234-12.024zm-14.134-7.345c0-1.602 1.303-2.906 2.906-2.906s2.906 1.303 2.906 2.906c0 1.602-1.303 2.906-2.906 2.906s-2.906-1.304-2.906-2.906zm2.906 25.311c-3.276 0-5.941-2.665-5.941-5.941s2.665-5.941 5.941-5.941c3.275 0 5.941 2.665 5.941 5.941-.001 3.276-2.666 5.941-5.941 5.941z"/></g><path d="m411.241 449.066h8.706c9.166 0 16.597-7.431 16.597-16.597v-31.319c0-9.166-7.431-16.597-16.597-16.597h-8.706c-9.166 0-16.597 7.431-16.597 16.597v31.319c0 9.166 7.43 16.597 16.597 16.597z" fill="#f0cfba"/><path d="m423.404 448.71c-1.11.24-2.27.36-3.45.36h-8.71c-9.16 0-16.6-7.43-16.6-16.6v-31.32c0-9.17 7.44-16.6 16.6-16.6h8.71c1.18 0 2.34.12 3.45.36-7.52 1.59-13.15 8.26-13.15 16.24v31.32c-.001 7.98 5.63 14.65 13.15 16.24z" fill="#ebb99a"/><path d="m267.298 384.553h-8.706c-9.166 0-16.597 7.431-16.597 16.597v79.175h24.608v-31.259h.695c9.166 0 16.597-7.431 16.597-16.597v-31.319c0-9.166-7.431-16.597-16.597-16.597z" fill="#f0cfba"/><path d="m270.415 384.85c-7.67 1.46-13.47 8.2-13.47 16.3v79.17h-14.95v-79.17c0-9.17 7.43-16.6 16.59-16.6h8.71c1.07 0 2.11.1 3.12.3z" fill="#ebb99a"/><path d="m273.57 455.05v37.69c-5.81.4-11.67 11.084-17.57 11.084-8.43 0-16.77-10.294-24.99-11.084v-37.69z" fill="#faf7eb"/><path d="m247.64 455.05v50.548c-5.59-.17-11.14-12.328-16.63-12.858v-37.69z" fill="#ebe6db"/><path d="m273.57 492.74v18.66c-5.81.4-11.67.6-17.57.6-2.8 0-5.59-.05-8.36-.14-5.59-.17-11.14-.53-16.63-1.06v-18.06z" fill="#545058"/><path d="m247.64 492.74v19.12c-5.59-.17-11.14-.53-16.63-1.06v-18.06z" fill="#423f46"/></g></svg>