<svg id="Capa_1" enable-background="new 0 0 512 512" height="512" viewBox="0 0 512 512" width="512" xmlns="http://www.w3.org/2000/svg" xmlns:xlink="http://www.w3.org/1999/xlink"><linearGradient id="SVGID_1_" gradientUnits="userSpaceOnUse" x1="74.981" x2="437.019" y1="437.019" y2="74.981"><stop offset="0" stop-color="#0072ff"/><stop offset="1" stop-color="#85ffe0"/></linearGradient><radialGradient id="SVGID_2_" cx="256" cy="256" gradientUnits="userSpaceOnUse" r="256"><stop offset="0" stop-color="#0072ff"/><stop offset=".0097" stop-color="#0174ff" stop-opacity=".99"/><stop offset=".4877" stop-color="#48beee" stop-opacity=".512"/><stop offset=".8296" stop-color="#74ede4" stop-opacity=".17"/><stop offset="1" stop-color="#85ffe0" stop-opacity="0"/></radialGradient><linearGradient id="lg1"><stop offset="0" stop-color="#85ffe0"/><stop offset=".5235" stop-color="#c7fff1"/><stop offset="1" stop-color="#fff"/></linearGradient><linearGradient id="SVGID_3_" gradientUnits="userSpaceOnUse" x1="37.056" x2="195.153" xlink:href="#lg1" y1="310.005" y2="151.908"/><linearGradient id="SVGID_4_" gradientUnits="userSpaceOnUse" x1="342.433" x2="491.273" xlink:href="#lg1" y1="334.506" y2="185.667"/><linearGradient id="SVGID_5_" gradientUnits="userSpaceOnUse" x1="16.991" x2="192.928" y1="256" y2="256"><stop offset="0" stop-color="#85ffe0" stop-opacity="0"/><stop offset=".2029" stop-color="#82fddf" stop-opacity=".203"/><stop offset=".3741" stop-color="#77f8dc" stop-opacity=".374"/><stop offset=".534" stop-color="#66efd8" stop-opacity=".534"/><stop offset=".6868" stop-color="#4de2d1" stop-opacity=".687"/><stop offset=".8347" stop-color="#2dd2c9" stop-opacity=".835"/><stop offset=".9771" stop-color="#07bebf" stop-opacity=".977"/><stop offset="1" stop-color="#00babd"/></linearGradient><linearGradient id="SVGID_6_" gradientUnits="userSpaceOnUse" x1="329.881" x2="489.74" y1="256" y2="256"><stop offset="0" stop-color="#00babd"/><stop offset=".0208" stop-color="#0cc0c0" stop-opacity=".979"/><stop offset=".0844" stop-color="#2dd1c9" stop-opacity=".916"/><stop offset=".1559" stop-color="#48dfd0" stop-opacity=".844"/><stop offset=".2362" stop-color="#5febd6" stop-opacity=".764"/><stop offset=".3292" stop-color="#70f4da" stop-opacity=".671"/><stop offset=".4428" stop-color="#7cfade" stop-opacity=".557"/><stop offset=".599" stop-color="#83fedf" stop-opacity=".401"/><stop offset="1" stop-color="#85ffe0" stop-opacity="0"/></linearGradient><linearGradient id="lg2"><stop offset="0" stop-color="#85ffe0"/><stop offset=".1954" stop-color="#89ffe1"/><stop offset=".3746" stop-color="#94ffe4"/><stop offset=".5476" stop-color="#a6ffe8"/><stop offset=".7167" stop-color="#c1ffef"/><stop offset=".8814" stop-color="#e2fff8"/><stop offset="1" stop-color="#fff"/></linearGradient><linearGradient id="SVGID_7_" gradientUnits="userSpaceOnUse" x1="207.512" x2="389.632" xlink:href="#lg2" y1="350.375" y2="168.256"/><linearGradient id="lg3"><stop offset="0" stop-color="#43dcc7"/><stop offset=".0129" stop-color="#46dec8" stop-opacity=".987"/><stop offset=".1156" stop-color="#5dead1" stop-opacity=".884"/><stop offset=".2333" stop-color="#6ff3d8" stop-opacity=".767"/><stop offset=".3755" stop-color="#7cfadc" stop-opacity=".625"/><stop offset=".5654" stop-color="#83fedf" stop-opacity=".435"/><stop offset="1" stop-color="#85ffe0" stop-opacity="0"/></linearGradient><linearGradient id="SVGID_8_" gradientUnits="userSpaceOnUse" x1="254.082" x2="431.559" xlink:href="#lg3" y1="256" y2="256"/><linearGradient id="SVGID_9_" gradientUnits="userSpaceOnUse" x1="150.817" x2="348.704" xlink:href="#lg2" y1="361.183" y2="163.296"/><linearGradient id="SVGID_10_" gradientUnits="userSpaceOnUse" x1="208.649" x2="386.127" xlink:href="#lg3" y1="256" y2="256"/><linearGradient id="SVGID_11_" gradientUnits="userSpaceOnUse" x1="105.013" x2="302.742" xlink:href="#lg2" y1="361.099" y2="163.37"/><linearGradient id="SVGID_12_" gradientUnits="userSpaceOnUse" x1="159.072" x2="337.268" xlink:href="#lg3" y1="256" y2="256"/><linearGradient id="SVGID_13_" gradientUnits="userSpaceOnUse" x1="42.442" x2="221.529" xlink:href="#lg2" y1="262.095" y2="83.009"/><linearGradient id="SVGID_14_" gradientUnits="userSpaceOnUse" x1="228.053" x2="421.542" xlink:href="#lg2" y1="491.41" y2="297.921"/><linearGradient id="lg4"><stop offset="0" stop-color="#00babd"/><stop offset=".084" stop-color="#23ccc6" stop-opacity=".916"/><stop offset=".1762" stop-color="#41dcce" stop-opacity=".824"/><stop offset=".2781" stop-color="#5ae9d5" stop-opacity=".722"/><stop offset=".3916" stop-color="#6df3da" stop-opacity=".608"/><stop offset=".5232" stop-color="#7bfadd" stop-opacity=".477"/><stop offset=".6889" stop-color="#83fedf" stop-opacity=".311"/><stop offset="1" stop-color="#85ffe0" stop-opacity="0"/></linearGradient><linearGradient id="SVGID_15_" gradientTransform="matrix(-1 0 0 -1 332 264.5)" gradientUnits="userSpaceOnUse" x1="-15.589" x2="-15.589" xlink:href="#lg4" y1="-24.298" y2="-231.895"/><linearGradient id="SVGID_16_" gradientUnits="userSpaceOnUse" x1="164.411" x2="164.411" xlink:href="#lg4" y1="232.876" y2="25.279"/><linearGradient id="SVGID_17_" gradientUnits="userSpaceOnUse" x1="-84.587" x2="315.704" y1="556.127" y2="155.836"><stop offset="0" stop-color="#85ffe0"/><stop offset=".1488" stop-color="#8bffe2"/><stop offset=".3477" stop-color="#9cffe6"/><stop offset=".5749" stop-color="#b8ffed"/><stop offset=".8213" stop-color="#defff7"/><stop offset="1" stop-color="#fff"/></linearGradient><linearGradient id="SVGID_18_" gradientUnits="userSpaceOnUse" x1="5.292" x2="439.383" y1="547.168" y2="113.077"><stop offset="0" stop-color="#85ffe0"/><stop offset=".1461" stop-color="#8cffe2"/><stop offset=".3513" stop-color="#9effe6"/><stop offset=".5916" stop-color="#bcffee"/><stop offset=".8565" stop-color="#e5fff8"/><stop offset="1" stop-color="#fff"/></linearGradient><g><circle cx="256" cy="256" fill="url(#SVGID_1_)" r="256"/><circle cx="256" cy="256" fill="url(#SVGID_2_)" r="256"/><path d="m24.35 256c0 7.595.419 15.099 1.222 22.505 43.509.21 87.017.361 130.526.452-.047-15.305-.047-30.611 0-45.916-43.509.091-87.017.242-130.526.452-.803 7.408-1.222 14.913-1.222 22.507z" fill="url(#SVGID_3_)"/><path d="m487.65 256c0 7.595-.419 15.099-1.222 22.505-43.509.21-87.017.361-130.526.452.047-15.305.047-30.611 0-45.916 43.509.091 87.017.242 130.526.452.804 7.408 1.222 14.913 1.222 22.507z" fill="url(#SVGID_4_)"/><path d="m24.35 256c0 7.595.419 15.099 1.222 22.505 43.509.21 87.017.361 130.526.452-.047-15.305-.047-30.611 0-45.916-43.509.091-87.017.242-130.526.452-.803 7.408-1.222 14.913-1.222 22.507z" fill="url(#SVGID_5_)"/><path d="m487.65 256c0 7.595-.419 15.099-1.222 22.505-43.509.21-87.017.361-130.526.452.047-15.305.047-30.611 0-45.916 43.509.091 87.017.242 130.526.452.804 7.408 1.222 14.913 1.222 22.507z" fill="url(#SVGID_6_)"/><path d="m301.907 340.481c-12.671.048-22.92-10.261-22.902-22.996-10.186-20.481-20.443-40.985-30.693-61.485 10.25-20.5 20.506-41.003 30.692-61.486-.018-12.735 10.231-23.041 22.902-22.995 12.671.048 23.031 10.409 23.107 23.115 10.34 20.495 20.673 40.959 30.923 61.366-10.25 20.407-20.583 40.871-30.923 61.366-.075 12.706-10.436 23.066-23.106 23.115z" fill="url(#SVGID_7_)"/><path d="m301.907 171.519c-12.671-.048-22.92 10.262-22.902 22.995-10.186 20.482-20.442 40.986-30.692 61.485 10.25 20.5 20.506 41.004 30.692 61.485-.018 12.735 10.231 23.043 22.902 22.996.291-56.32.291-112.64 0-168.961z" fill="url(#SVGID_8_)"/><path d="m256 171.438c-12.671.001-22.976 10.345-23.005 23.077-10.263 20.509-20.558 41.012-30.808 61.485 10.25 20.473 20.545 40.977 30.808 61.485.029 12.733 10.334 23.077 23.005 23.077s22.976-10.345 23.005-23.077c.077-40.99.077-81.98 0-122.97-.029-12.732-10.334-23.076-23.005-23.077z" fill="url(#SVGID_9_)"/><path d="m256 171.438c-12.671.001-22.976 10.345-23.005 23.077-10.263 20.509-20.558 41.012-30.808 61.485 10.25 20.473 20.545 40.977 30.808 61.485.029 12.733 10.334 23.077 23.005 23.077 0-56.374 0-112.749 0-169.124z" fill="url(#SVGID_10_)"/><path d="m210.093 171.519c-12.67.047-23.031 10.409-23.107 23.115-10.34 20.495-20.673 40.959-30.923 61.366 10.25 20.407 20.583 40.871 30.923 61.366.077 12.706 10.437 23.067 23.108 23.114 12.671.046 22.92-10.262 22.902-22.996-.077-40.99-.077-81.98 0-122.97.017-12.732-10.232-23.043-22.903-22.995z" fill="url(#SVGID_11_)"/><path d="m210.093 171.519c-12.67.047-23.031 10.409-23.107 23.115-10.34 20.495-20.673 40.959-30.923 61.366 10.25 20.407 20.583 40.871 30.923 61.366.077 12.706 10.437 23.067 23.108 23.114-.292-56.32-.292-112.64-.001-168.961z" fill="url(#SVGID_12_)"/><path d="m170.946 66.418c-2.779-2.546-7.082-2.473-9.982.163-10.986 9.999-18.192 24.353-18.56 40.191-.676 29.366-1.152 58.732-1.428 88.099 15.337-.099 30.673-.178 46.01-.238.166-29.481.452-58.961.857-88.442.213-15.903-6.369-30.121-16.897-39.773z" fill="url(#SVGID_13_)"/><path d="m325.015 317.366c-.166 29.481-.452 58.961-.857 88.442-.214 15.905 6.368 30.122 16.897 39.774 2.779 2.547 7.082 2.475 9.982-.163 10.986-9.998 18.192-24.352 18.56-40.191.676-29.366 1.152-58.732 1.428-88.099-15.337.099-30.674.178-46.01.237z" fill="url(#SVGID_14_)"/><path d="m341.054 445.582c2.779 2.547 7.082 2.475 9.982-.163 10.986-9.998 18.192-24.352 18.56-40.191.676-29.366 1.152-58.732 1.428-88.099-15.337.099-30.673.178-46.01.238-.166 29.481-.452 58.961-.857 88.442-.213 15.904 6.369 30.121 16.897 39.773z" fill="url(#SVGID_15_)"/><path d="m170.946 66.418c-2.779-2.546-7.082-2.473-9.982.163-10.986 9.999-18.192 24.353-18.56 40.191-.676 29.366-1.152 58.732-1.428 88.099 15.337-.099 30.673-.178 46.01-.238.166-29.481.452-58.961.857-88.442.213-15.903-6.369-30.121-16.897-39.773z" fill="url(#SVGID_16_)"/><path d="m164.186 171.765c-12.67.095-23.086 10.454-23.21 23.107-.661 70.118-.185 140.237 1.428 210.356.368 15.839 7.574 30.193 18.56 40.191 2.9 2.637 7.203 2.71 9.982.163 10.528-9.652 17.111-23.869 16.897-39.774-.968-70.391-1.253-140.782-.857-211.174.065-12.713-10.129-22.965-22.8-22.869z" fill="url(#SVGID_17_)"/><path d="m351.036 66.582c-2.9-2.637-7.203-2.708-9.982-.163-10.529 9.652-17.111 23.869-16.897 39.774.968 70.392 1.253 140.783.857 211.174-.066 12.713 10.129 22.964 22.8 22.869 12.67-.094 23.086-10.454 23.21-23.107.661-70.118.185-140.237-1.428-210.355-.368-15.841-7.573-30.194-18.56-40.192z" fill="url(#SVGID_18_)"/></g></svg>