<svg id="Capa_1" enable-background="new 0 0 512 512" height="512" viewBox="0 0 512 512" width="512" xmlns="http://www.w3.org/2000/svg"><g><g><circle cx="256" cy="256" fill="#4bbaed" r="256"/></g><g><path d="m256 512c60.092 0 115.341-20.714 159.017-55.379-27.822-21.179-62.418-36.854-100.974-44.8-4.67-.962-8.043-5.036-8.043-9.803v-97.748h-100v97.748c0 4.768-3.373 8.841-8.043 9.803-38.556 7.946-73.151 23.621-100.974 44.8 43.676 34.665 98.925 55.379 159.017 55.379z" fill="#fbbd94"/></g><g><path d="m307.111 406.57c-.708-1.373-1.111-2.92-1.111-4.553v-97.747h-100v97.748c0 4.768-3.373 8.841-8.043 9.803-38.556 7.946-73.151 23.621-100.974 44.8 12.78 10.143 26.557 19.081 41.15 26.666 38.02-42.924 99.051-72.212 168.978-76.717z" fill="#fbad7d"/></g><g><path d="m311.734 411.042c-7.36 23.788-29.528 41.07-55.734 41.07s-48.374-17.282-55.734-41.07c-.724.344-1.495.611-2.309.779-38.556 7.946-73.151 23.621-100.974 44.8 43.676 34.665 98.925 55.379 159.017 55.379s115.341-20.714 159.017-55.379c-27.822-21.179-62.418-36.854-100.974-44.8-.814-.168-1.585-.435-2.309-.779z" fill="#daf0fa"/></g><g><path d="m101.528 460.14c.436.33.878.653 1.315.98 1.118.836 2.241 1.667 3.373 2.485.477.345.958.685 1.438 1.026 1.144.814 2.293 1.621 3.451 2.417.426.293.852.584 1.28.875 1.304.885 2.617 1.759 3.939 2.621.277.181.553.364.831.543 6.78 4.383 13.779 8.457 20.978 12.199 19.018-21.471 43.793-39.53 72.56-52.781-4.625-5.699-8.205-12.281-10.427-19.463-.329.156-.67.293-1.019.414-.062.022-.124.044-.186.064-.36.117-.726.223-1.104.301-21.688 4.47-42.122 11.385-60.803 20.35-6.227 2.988-12.259 6.204-18.078 9.633-7.758 4.572-15.137 9.523-22.093 14.817 1.501 1.191 3.017 2.362 4.545 3.519z" fill="#b7e4f8"/></g><g><g><path d="m85.984 199.08c23.326-6.25 64.936 2.868 71.186 26.194s-25.226 52.027-48.552 58.278c-23.326 6.25-29.668-12.318-35.919-35.644-6.25-23.327-10.041-42.578 13.285-48.828z" fill="#fbad7d"/></g><g><path d="m426.016 199.08c-23.326-6.25-64.936 2.868-71.186 26.194s25.226 52.027 48.552 58.278c23.326 6.25 29.668-12.318 35.919-35.644 6.25-23.327 10.041-42.578-13.285-48.828z" fill="#fbbd94"/></g></g><g><path d="m99.718 205.254c0-86.312 69.97-156.282 156.282-156.282s156.282 69.97 156.282 156.282-22.838 174.016-156.282 174.016-156.282-87.704-156.282-174.016z" fill="#fcd2ac"/></g><g><path d="m256 276.067c-8.45 0-15.461-6.534-16.056-14.963l-8.188-115.959c-.409-5.786 4.175-10.704 9.975-10.704h28.538c5.8 0 10.384 4.919 9.975 10.704l-8.188 115.959c-.595 8.43-7.606 14.963-16.056 14.963z" fill="#fbbd94"/></g><g><path d="m139.719 205.254v-104.405c-24.865 27.676-40 64.271-40 104.405 0 86.312 22.838 174.016 156.281 174.016 1.88 0 3.73-.023 5.566-.058 1-.02 1.985-.051 2.973-.081.738-.022 1.477-.043 2.208-.07 1.313-.05 2.614-.11 3.904-.178.31-.016.618-.033.927-.05 1.487-.084 2.963-.176 4.421-.282h.001c-115.75-8.453-136.281-91.493-136.281-173.297z" fill="#fbbd94"/></g><g><path d="m305.327 307.167h-98.654c-4.142 0-7.5-3.357-7.5-7.5s3.358-7.5 7.5-7.5h98.654c4.142 0 7.5 3.357 7.5 7.5s-3.358 7.5-7.5 7.5z" fill="#fbbd94"/></g><g><path d="m131.736 330.003 41.93-48.336-53.584 30.013c3.35 6.444 7.217 12.572 11.654 18.323z" fill="#fbad7d"/></g><g><path d="m79.76 201.37c.47-21.51 4.81-42.07 12.34-61.04 25.91-65.17 89.61-111.36 163.9-111.36s137.99 46.19 163.89 111.36c7.54 18.95 11.88 39.51 12.35 61.01z" fill="#132f3b"/></g><g><path d="m276.054 30.108c-6.583-.749-13.274-1.138-20.054-1.138-74.29 0-137.99 46.19-163.9 111.36-7.53 18.97-11.87 39.53-12.34 61.04l40.008-.003c1.929-88.704 69.703-161.463 156.286-171.259z" fill="#0a181e"/></g><g><path d="m345.638 215.642c-4.368-4.476-10.597-7.127-17.436-6.702-11.139.691-20.204 9.757-20.896 20.896-.425 6.84 2.227 13.069 6.702 17.436 5.812 5.672 15.62 1.376 15.62-6.745 0-5.116 4.148-9.264 9.264-9.264 8.121-.001 12.418-9.809 6.746-15.621z" fill="#0a181e"/></g><g><path d="m166.362 215.642c4.368-4.476 10.597-7.127 17.436-6.702 11.139.691 20.204 9.757 20.896 20.896.425 6.84-2.227 13.069-6.702 17.436-5.812 5.672-15.62 1.376-15.62-6.745 0-5.116-4.148-9.264-9.264-9.264-8.121-.001-12.418-9.809-6.746-15.621z" fill="#0a181e"/></g><g><path d="m92.1 140.33c-.469 1.181-.925 2.368-1.369 3.561h330.531c-.445-1.193-.902-2.38-1.372-3.561-7.957-20.023-19.488-38.249-33.792-53.9h-260.199c-14.306 15.651-25.838 33.877-33.799 53.9z" fill="#daf0fa"/></g><g><path d="m408.85 452.112h-305.7c-2.087 1.477-4.15 2.974-6.167 4.509 43.676 34.665 98.925 55.379 159.017 55.379s115.341-20.714 159.017-55.379c-2.017-1.535-4.08-3.033-6.167-4.509z" fill="#132f3b"/></g><g><path d="m103.15 452.112s-.001.001-.001.001c-.671.475-1.334.956-1.999 1.436-1.4 1.014-2.798 2.031-4.166 3.073 1.5 1.191 3.017 2.362 4.544 3.519.353.268.71.53 1.066.795.083.063.167.125.251.187 1.116.834 2.236 1.663 3.366 2.48.481.348.966.691 1.45 1.035 1.141.812 2.287 1.617 3.442 2.411.083.057.167.114.251.172.343.235.686.471 1.031.704 1.304.885 2.617 1.759 3.939 2.621.046.03.092.06.138.091.233.152.464.305.698.457 6.779 4.381 13.775 8.454 20.973 12.195 10.127-11.434 21.901-21.887 35.027-31.175h-70.01z" fill="#0a181e"/></g><g><path d="m165.901 86.43h-40.001c-14.306 15.65-25.839 33.877-33.799 53.9-.469 1.181-.925 2.368-1.369 3.561h40.011c7.98-21.423 20.009-40.889 35.158-57.461z" fill="#b7e4f8"/></g></g></svg>