<svg id="Capa_1" enable-background="new 0 0 512 512" height="512" viewBox="0 0 512 512" width="512" xmlns="http://www.w3.org/2000/svg"><g><g><g><g><g><g><g><g><g><g><circle cx="256" cy="256" fill="#a3d4ff" r="256"/></g></g></g></g></g></g></g></g></g><path d="m512 256c0-16.366-1.536-32.373-4.471-47.886l-131.921-131.921-217.68 25.843-21.536 337.934 66.518 66.518c17.128 3.612 34.887 5.512 53.09 5.512 141.385 0 256-114.615 256-256z" fill="#65b1fc"/><g><g><path d="m190.027 109.163h31.276v126.407h-31.276z" fill="#414952"/></g><g><path d="m290.697 109.163h31.276v126.407h-31.276z" fill="#23272b"/></g></g><g><path d="m240.362 109.163h31.276v126.407h-31.276z" fill="#414952"/></g><g><path d="m255.734 109.163h15.904v126.407h-15.904z" fill="#23272b"/></g><g><path d="m136.392 76.193v363.777h239.215v-363.777zm203.121 139.036h-167.026v-93.74h167.026z" fill="#555a66"/></g><g><path d="m375.608 76.193h-119.874v45.295h83.779v93.741h-83.779v224.741h119.874z" fill="#333940"/></g><g><path d="m172.487 279.584h67.875v38.118h-67.875z" fill="#333940"/></g></g></svg>