<svg id="Capa_1" enable-background="new 0 0 512 512" height="512" viewBox="0 0 512 512" width="512" xmlns="http://www.w3.org/2000/svg"><g><g><path d="m512 256c0 123.057-86.825 225.834-202.556 250.413-17.237 3.661-33.158-1.95-51.486-1.95-34.585 0-69.526.679-99.622-11.752-38.015-15.702-71.423-40.294-97.632-71.187-13.55-15.971-21.176-36.626-30.519-55.606-9.657-19.618-20.877-37.653-25.263-59.708-3.229-16.236-4.922-33.025-4.922-50.21 0-141.385 114.615-256 256-256s256 114.615 256 256z" fill="#0a181e"/></g><g><g><g><path d="m329.278 239.98c-8.175 0-15.86-3.184-21.642-8.964-5.78-5.78-8.965-13.466-8.965-21.642s3.185-15.862 8.966-21.643l32.676-32.677c5.781-5.781 13.467-8.965 21.643-8.965s15.861 3.184 21.643 8.965c5.78 5.781 8.964 13.466 8.964 21.642 0 8.175-3.184 15.861-8.964 21.642l-32.678 32.677c-5.781 5.782-13.467 8.965-21.643 8.965zm32.678-78.89c-4.169 0-8.088 1.624-11.035 4.571l-32.677 32.677c-2.948 2.948-4.572 6.867-4.572 11.036 0 4.168 1.624 8.087 4.571 11.035 2.948 2.948 6.867 4.571 11.035 4.571 4.169 0 8.088-1.624 11.035-4.571l32.678-32.677c6.085-6.085 6.085-15.986 0-22.071-2.947-2.947-6.866-4.571-11.035-4.571z" fill="#76c6e2"/></g></g><g><path d="m468.593 113.344c-2.831-4.21-5.792-8.325-8.861-12.353l-25.873 25.875c-2.948 2.948-6.868 4.571-11.036 4.571-4.169 0-8.088-1.624-11.035-4.571-2.948-2.948-4.571-6.867-4.571-11.036 0-4.168 1.623-8.087 4.571-11.035l27.496-27.496c-3.492-3.581-7.078-7.068-10.773-10.44l-27.33 27.33c-5.78 5.781-8.964 13.466-8.964 21.642s3.184 15.861 8.964 21.642c5.781 5.781 13.467 8.965 21.643 8.965 8.175 0 15.861-3.184 21.643-8.965z" fill="#76c6e2"/></g><g><g><path d="m361.956 184.197c-1.92 0-3.839-.732-5.304-2.197-2.929-2.929-2.929-7.678 0-10.606l60.866-60.866c2.931-2.929 7.679-2.929 10.607 0 2.929 2.929 2.929 7.678 0 10.606l-60.865 60.866c-1.465 1.464-3.385 2.197-5.304 2.197z" fill="#93d6f4"/></g></g><g><path d="m52.265 225.63c-23.296 23.296-39.044 51.277-47.266 80.908 8.694 43.418 28.374 82.862 56.015 115.324-28.41-52.422-20.468-119.323 23.846-163.637 54.005-54.005 141.564-54.005 195.568 0 54.005 54.005 54.005 141.563 0 195.568-33.824 33.824-80.811 46.461-124.472 37.915 30.734 13.062 64.544 20.292 100.044 20.292 9.209 0 18.301-.497 27.258-1.446 10.531-6.871 20.519-14.921 29.764-24.167 72.006-72.006 72.006-188.751 0-260.758-72.006-72.005-188.751-72.005-260.757.001z" fill="#76c6e2"/></g><g><path d="m272.418 119.836c-7.201-7.201-18.875-7.201-26.076 0l-39.114 39.114c-7.201 7.201-7.201 18.875 0 26.076l73.199 73.199-.006.006c.147.147.299.288.446.436 53.188 53.66 53.216 140.934.059 194.625-33.865 34.206-81.108 47.004-124.99 38.408 30.74 13.066 64.556 20.3 100.064 20.3 9.235 0 18.353-.501 27.335-1.454 10.907-7.149 21.236-15.558 30.768-25.247 33.806-34.362 51.407-78.685 52.82-123.425.37-11.726 5.184-22.872 13.482-31.167l38.412-38.397c7.201-7.201 7.201-18.875 0-26.076z" fill="#93d6f4"/></g><g><g><path d="m274.431 172.522c5.556-5.556 5.396-14.663-.48-20.014-5.182-4.72-13.317-4.747-18.53-.061-4.043 3.635-5.406 9.031-4.118 13.868l-10.946 10.946c-2.7 2.7-2.7 7.078 0 9.778 2.7 2.7 7.078 2.7 9.778 0l10.946-10.946c4.613 1.228 9.733.046 13.35-3.571z" fill="#76c6e2"/></g></g></g><g><path d="m320.851 8.296v36.051c0 10.358-8.427 18.785-18.785 18.785h-.001c-10.358 0-18.785-8.427-18.785-18.785v-42.899c-4.959-.525-9.96-.911-15-1.149v44.048c0 18.629 15.156 33.785 33.786 33.785 18.629 0 33.785-15.156 33.785-33.785v-31.629c-4.937-1.619-9.936-3.1-15-4.422z" fill="#b7e4f8"/></g><g><g><path d="m302.065 92.13c-115.944 0-209.935 93.991-209.935 209.935s93.991 209.935 209.935 209.935 209.935-93.991 209.935-209.935-93.991-209.935-209.935-209.935zm0 367.386c-86.958 0-157.451-70.493-157.451-157.451s70.493-157.451 157.451-157.451 157.451 70.493 157.451 157.451-70.493 157.451-157.451 157.451z" fill="#b7e4f8"/></g><g><path d="m455.149 158.424c-9.143-9.739-14.24-22.588-14.238-35.946l.012-61.838c0-11.594-9.399-20.994-20.993-20.994h-235.73c-11.594 0-20.993 9.399-20.993 20.994v62.981c0 11.594 9.399 20.993 20.993 20.993h117.865v.01c.237 0 .472-.009.71-.008 86.023.381 156.309 70.622 156.74 156.645.436 87.127-69.898 157.93-156.848 158.255-14.565.054-26.964 11.903-26.842 26.468.121 14.39 11.823 26.017 26.241 26.017.233 0 .464-.012.696-.018 1.772-.004 3.546-.017 5.328-.068 114.677-3.253 204.839-96.877 203.904-211.596-.448-54.882-21.962-104.737-56.845-141.895z" fill="#daf0fa"/></g><g><circle cx="302.065" cy="485.758" fill="#b7e4f8" r="15.745"/></g><g><path d="m228.238 80.443c0-8.946-7.461-16.149-16.5-15.727-7.972.372-14.544 6.9-14.968 14.869-.329 6.182 2.918 11.624 7.85 14.48v17.626c0 4.348 3.525 7.873 7.873 7.873 4.348 0 7.873-3.525 7.873-7.873v-17.627c4.701-2.723 7.872-7.797 7.872-13.621z" fill="#b7e4f8"/></g></g></g></svg>