<svg id="Capa_1" enable-background="new 0 0 512 512" height="512" viewBox="0 0 512 512" width="512" xmlns="http://www.w3.org/2000/svg"><g><path d="m512 256.486c-.262 140.812-115.363 255.609-256.176 255.514-4.5-.003-8.973-.122-13.416-.355-4.613-.241-8.981-2.117-12.41-5.212-38.99-35.203-88.865-58.578-143.968-64.47-4.38-.468-8.494-2.372-11.599-5.496-46.248-46.528-74.732-110.732-74.429-181.588.606-141.381 114.616-254.879 255.998-254.879 141.547 0 256.262 114.878 256 256.486z" fill="#ffb52d"/><path d="m491 256c0 100.516-81.484 182-182 182s-182-81.484-182-182 81.484-182 182-182 182 81.484 182 182z" fill="#ffc14f"/><path d="m228.13 221.291c-1.574.494-3.249.761-4.987.761h-8.312c-9.181 0-16.623-7.443-16.623-16.623v-49.381c0-9.181 7.443-16.623 16.623-16.623h8.312c1.738 0 3.413.267 4.987.761-6.744 2.118-11.636 8.419-11.636 15.862v49.381c-.001 7.443 4.892 13.743 11.636 15.862z" fill="#f2bb88"/><path d="m227.299 209.584c0 2.295-1.861 4.156-4.156 4.156h-8.312c-2.295 0-4.156-1.861-4.156-4.156s1.861-4.156 4.156-4.156h8.312c2.295.001 4.156 1.861 4.156 4.156zm-2.078-20.779h-12.468c-2.295 0-4.156 1.861-4.156 4.156s1.861 4.156 4.156 4.156h12.468c2.295 0 4.156-1.861 4.156-4.156s-1.861-4.156-4.156-4.156z" fill="#e3a76f"/><path d="m281 100v70c0 26.125-23.696 48.349-47 56.586v277.497c0 2.37-21.659 4.433-32.021 2.207-34.268-7.361-65.988-21.581-93.655-41.152-17.765-12.568-28.324-32.98-28.324-54.741v-181.397c-22.822-4.633-38-24.81-38-49v-80c0-11.046 8.954-20 20-20h199c11.046 0 20 8.954 20 20z" fill="#a65d4e"/><path d="m235.732 94 .25 1.861c-.203.994-.982 30.139-.982 30.139 0 11.046-5.954 20-17 20h-14c-6.311 0-11.939-2.923-15.605-7.489-2.285-2.846-6.506-2.846-8.791 0-3.665 4.566-9.293 7.489-15.604 7.489h-10c-6.311 0-11.939-2.923-15.605-7.489-2.285-2.846-6.506-2.846-8.791 0-3.665 4.566-9.293 7.489-15.604 7.489h-10c-6.259 0-11.846-2.875-15.513-7.376-2.315-2.842-6.682-2.785-9.011.046l-.399.484c-3.283 3.99-5.077 8.997-5.077 14.164v7.682c0 16.265 7.766 30.716 19.793 39.847 12.606 9.57 20.207 24.32 20.207 40.147v228.046c-14.436-9.641-27.836-20.711-40-33.006v-207.034c-22.822-4.633-40-24.81-40-49v-72.564c0-7.42 6.016-13.436 13.436-13.436zm-27.101 58c-17.793 0-34.343 9.43-46.599 26.553-11.713 16.364-18.164 38.009-18.164 60.947 0 4.142 3.358 7.5 7.5 7.5s7.5-3.358 7.5-7.5c0-39.977 22.323-72.5 49.763-72.5 4.142 0 7.5-3.358 7.5-7.5s-3.358-7.5-7.5-7.5zm27.35-56.139.019.139c0-.157-.006-.199-.019-.139z" fill="#915041"/><path d="m284 113.791-50-3.791c0 11.046-8.954 20-20 20h-10c-11.046 0-20-8.954-20-20 0 11.046-8.954 20-20 20h-10c-11.046 0-20-8.954-20-20 0 11.046-8.954 20-20 20h-10c-11.046 0-20-8.954-20-20 0 8.975-5.911 16.569-14.053 19.101-1.878.584-9.947-.101-9.947-.101-11.046 0-20-7.954-20-19v-59.412c0-11.046 8.954-20 20-20h4c11.046 0 20 8.954 20 20v-15.294c0-11.046 8.954-20 20-20h10c2.09 0 4.106.321 6 .916.885.278-.828 3.397 0 3.79 6.757 3.21 14 7.316 14 15.294v-15.294c0-11.046 8.954-20 20-20h10c2.09 0 4.106.321 6 .916 1.014.319 1.062 3.616 2 4.084 6.562 3.281 10 8.164 10 16l2 14.294c0-11.046 8.954-20 20-20h10c2.09 0 4.106.321 6 .916 8.114 2.549 10 10.129 10 19.084v44.706c0-2.761 7.125-4.142 11.813-4.66 22.6-2.496 42.187 15.714 42.187 38.451z" fill="#b46e5a"/><path d="m70 129.084c-1.894.595-3.91.916-6 .916h-10c-11.046 0-20-8.954-20-20v-59.412c0-11.046 8.954-20 20-20h10c2.09 0 4.106.321 6 .916-8.114 2.549-14 10.129-14 19.084v59.412c0 8.955 5.886 16.536 14 19.084z" fill="#a65d4e"/><path d="m69 115c0 2.761-2.239 5-5 5h-10c-2.761 0-5-2.239-5-5s2.239-5 5-5h10c2.761 0 5 2.239 5 5zm-2.5-25h-15c-2.761 0-5 2.239-5 5s2.239 5 5 5h15c2.761 0 5-2.239 5-5s-2.239-5-5-5z" fill="#915041"/><path d="m134 35.294v74.706c0 8.955-5.886 16.536-14 19.084-8.114-2.549-14-10.129-14-19.084v-74.706c0-8.955 5.886-16.536 14-19.084 8.114 2.549 14 10.129 14 19.084zm86-19.084c-8.114 2.549-14 10.129-14 19.084v74.706c0 8.955 5.886 16.536 14 19.084 8.114-2.549 14-10.129 14-19.084v-74.706c0-8.955-5.886-16.535-14-19.084zm-50-15.294c-8.114 2.548-14 10.129-14 19.084v90c0 8.955 5.886 16.536 14 19.084 8.114-2.549 14-10.129 14-19.084v-90c0-8.955-5.886-16.536-14-19.084z" fill="#c38778"/><path d="m284 140.234v29.766c0 20.515-10.296 38.626-26.003 49.446-8.705 5.996-13.997 15.806-13.997 26.376v265.901c-14.347-.662-28.386-2.505-42.021-5.434v-268.975c0-15.11 6.673-29.475 18.299-39.126 13.258-11.006 13.701-17.611 13.701-36.188v-49.96h-20.979c-16.568 0-30-13.432-30-30 0-11.046 8.954-18 20-18h61c11.046 0 17 6.954 17 18z" fill="#b46e5a"/><path d="m234 112.04h-21c-16.568 0-30-13.431-30-30 0-11.046 8.954-20 20-20 0 0 1 8.954 1 20 0 16.569 13.431 30 30 30z" fill="#a65d4e"/><path d="m119 115c0 2.761-2.239 5-5 5h-10c-2.761 0-5-2.239-5-5s2.239-5 5-5h10c2.761 0 5 2.239 5 5zm-2.5-25h-15c-2.761 0-5 2.239-5 5s2.239 5 5 5h15c2.761 0 5-2.239 5-5s-2.239-5-5-5zm47.5 20h-10c-2.761 0-5 2.239-5 5s2.239 5 5 5h10c2.761 0 5-2.239 5-5s-2.239-5-5-5zm2.5-20h-15c-2.761 0-5 2.239-5 5s2.239 5 5 5h15c2.761 0 5-2.239 5-5s-2.239-5-5-5zm47.5 20h-10c-2.761 0-5 2.239-5 5s2.239 5 5 5h10c2.761 0 5-2.239 5-5s-2.239-5-5-5z" fill="#a65d4e"/><path d="m284 82.04v57.051c0 7.808-6 14.526-13.799 14.893-8.327.392-15.201-6.243-15.201-14.484v-38.5c0-5.523-4.477-10-10-10h-11c-9.276 0-17.569-4.21-23.072-10.824-5.99-7.199-.755-18.136 8.61-18.136h44.462c11.046 0 20 8.954 20 20z" fill="#c38778"/><path d="m224 66.04v12c0 2.209-1.791 4-4 4h-13.5c-7.18 0-13-5.82-13-13 0-3.866 3.134-7 7-7h19.5c2.209 0 4 1.791 4 4z" fill="#e0aea2"/><path d="m309 300c0 4.142-3.358 7.5-7.5 7.5h-47.5c-4.142 0-7.5-3.358-7.5-7.5s3.358-7.5 7.5-7.5h47.5c4.142 0 7.5 3.358 7.5 7.5z" fill="#3f7196"/><path d="m172.404 300c0 22.091-17.909 40-40 40h-68.404c-5.523 0-10-4.477-10-10v-60c0-5.523 4.477-10 10-10h68.404c22.092 0 40 17.909 40 40z" fill="#55a4f9"/><path d="m264 270v60c0 5.523-4.477 10-10 10h-121c-22.091 0-40-17.909-40-40s17.909-40 40-40h121c5.523 0 10 4.477 10 10z" fill="#86befb"/><path d="m243 290v20c0 5.523-4.477 10-10 10s-10-4.477-10-10v-20c0-5.523 4.477-10 10-10s10 4.477 10 10z" fill="#355f7e"/><path d="m334 332.5h-20c-17.92 0-32.5-14.579-32.5-32.5s14.58-32.5 32.5-32.5h20c17.92 0 32.5 14.579 32.5 32.5s-14.58 32.5-32.5 32.5zm-20-50c-9.649 0-17.5 7.851-17.5 17.5s7.851 17.5 17.5 17.5h20c9.649 0 17.5-7.851 17.5-17.5s-7.851-17.5-17.5-17.5zm96.429 44.556c-8.323 0-16.645-3.168-22.98-9.503-6.139-6.14-9.519-14.301-9.519-22.981 0-8.682 3.38-16.843 9.519-22.981l14.142-14.142c12.673-12.672 33.292-12.67 45.961-.001 6.139 6.14 9.519 14.301 9.519 22.981 0 8.682-3.38 16.843-9.519 22.981v-.001l-14.142 14.143c-6.336 6.336-14.659 9.504-22.981 9.504zm14.142-64.118c-4.482 0-8.962 1.705-12.375 5.117l-14.142 14.143c-3.305 3.305-5.125 7.699-5.125 12.374 0 4.674 1.82 9.069 5.125 12.375 6.823 6.821 17.925 6.822 24.749-.001l14.142-14.143c3.305-3.305 5.125-7.699 5.125-12.374 0-4.674-1.82-9.069-5.125-12.375-3.411-3.41-7.893-5.116-12.374-5.116zm84.95-42.71-1.717 1.717c-6.824 6.823-17.926 6.822-24.749.001-3.305-3.306-5.125-7.701-5.125-12.375 0-4.675 1.82-9.069 5.125-12.374l14.142-14.143c1.058-1.058 2.218-1.951 3.449-2.681-1.497-4.848-3.134-9.635-4.907-14.355-3.313 1.554-6.416 3.697-9.149 6.43l-14.142 14.142c-6.139 6.139-9.519 14.3-9.519 22.981s3.38 16.842 9.519 22.981c6.335 6.335 14.658 9.503 22.98 9.503 5.505 0 11.011-1.387 15.941-4.159-.415-5.947-1.034-11.839-1.848-17.668z" fill="#1380e2"/><path d="m401 300c0 4.142-3.358 7.5-7.5 7.5h-47.5c-4.142 0-7.5-3.358-7.5-7.5 0-4.142 3.358-7.5 7.5-7.5h47.5c4.142 0 7.5 3.358 7.5 7.5zm77.5-92.5h-47.5c-4.142 0-7.5 3.358-7.5 7.5 0 4.142 3.358 7.5 7.5 7.5h47.5c4.142 0 7.5-3.358 7.5-7.5 0-4.142-3.358-7.5-7.5-7.5z" fill="#3f7196"/><path d="m386.209 205.485-17.678-17.678c-2.929-2.929-2.929-7.678 0-10.607 2.929-2.929 7.678-2.929 10.607 0l17.678 17.678c2.929 2.929 2.929 7.678 0 10.607-2.93 2.929-7.678 2.929-10.607 0zm-6.517 17.324c0-4.142-3.358-7.5-7.5-7.5h-25c-4.142 0-7.5 3.358-7.5 7.5 0 4.142 3.358 7.5 7.5 7.5h25c4.142 0 7.5-3.358 7.5-7.5zm34.447-34.447c4.142 0 7.5-3.358 7.5-7.5v-25c0-4.142-3.358-7.5-7.5-7.5-4.142 0-7.5 3.358-7.5 7.5v25c0 4.142 3.358 7.5 7.5 7.5zm40.738 137.824c-2.929 2.929-2.929 7.678 0 10.607l17.678 17.678c2.929 2.929 7.678 2.929 10.607 0 2.929-2.929 2.929-7.678 0-10.607l-17.678-17.678c-2.929-2.929-7.678-2.929-10.607 0zm17.123-17.324c0 4.142 3.358 7.5 7.5 7.5h25c4.142 0 7.5-3.358 7.5-7.5 0-4.142-3.358-7.5-7.5-7.5h-25c-4.142 0-7.5 3.357-7.5 7.5zm-34.447 34.447c-4.142 0-7.5 3.358-7.5 7.5v25c0 4.142 3.358 7.5 7.5 7.5 4.142 0 7.5-3.358 7.5-7.5v-25c0-4.142-3.358-7.5-7.5-7.5z" fill="#fff5f5"/></g></svg>