<svg id="Capa_1" enable-background="new 0 0 510 510" height="512" viewBox="0 0 510 510" width="512" xmlns="http://www.w3.org/2000/svg" xmlns:xlink="http://www.w3.org/1999/xlink"><linearGradient id="lg1"><stop offset="0" stop-color="#e6eeff"/><stop offset="1" stop-color="#bac8fa"/></linearGradient><linearGradient id="SVGID_1_" gradientTransform="matrix(.874 -.486 .486 .874 808.256 -407.004)" gradientUnits="userSpaceOnUse" x1="-905.171" x2="-613.827" xlink:href="#lg1" y1="229.136" y2="520.481"/><linearGradient id="SVGID_2_" gradientTransform="matrix(.874 -.486 .486 .874 808.256 -407.004)" gradientUnits="userSpaceOnUse" x1="-679.671" x2="-994.398" xlink:href="#lg1" y1="454.637" y2="139.909"/><linearGradient id="lg2"><stop offset="0" stop-color="#a7b7f1" stop-opacity="0"/><stop offset="1" stop-color="#a7b7f1"/></linearGradient><linearGradient id="SVGID_3_" gradientTransform="matrix(.874 -.486 .486 .874 808.256 -407.004)" gradientUnits="userSpaceOnUse" x1="-854.885" x2="-854.885" xlink:href="#lg2" y1="268.193" y2="220"/><linearGradient id="SVGID_4_" gradientTransform="matrix(.874 -.486 .486 .874 808.256 -407.004)" gradientUnits="userSpaceOnUse" x1="-802.582" x2="-733.504" xlink:href="#lg2" y1="520.442" y2="520.442"/><linearGradient id="SVGID_5_" gradientTransform="matrix(.874 -.486 .486 .874 808.256 -407.004)" gradientUnits="userSpaceOnUse" x1="-901.88" x2="-567.238" xlink:href="#lg1" y1="144.055" y2="478.697"/><linearGradient id="SVGID_6_" gradientTransform="matrix(.874 -.486 .486 .874 808.256 -407.004)" gradientUnits="userSpaceOnUse" x1="-615.936" x2="-969.636" xlink:href="#lg1" y1="484.643" y2="130.944"/><linearGradient id="SVGID_7_" gradientTransform="matrix(.874 -.486 .486 .874 808.256 -407.004)" gradientUnits="userSpaceOnUse" x1="-708.705" x2="-759.421" xlink:href="#lg1" y1="552.68" y2="501.965"/><linearGradient id="SVGID_8_" gradientTransform="matrix(-.874 .486 -.486 -.874 -777.492 -2244.317)" gradientUnits="userSpaceOnUse" x1="254.559" x2="221.232" xlink:href="#lg1" y1="-2890.007" y2="-2923.334"/><linearGradient id="SVGID_9_" gradientTransform="matrix(.874 -.486 .486 .874 808.256 -407.004)" gradientUnits="userSpaceOnUse" x1="-737.523" x2="-788.55" xlink:href="#lg2" y1="189.223" y2="138.196"/><linearGradient id="SVGID_10_" gradientUnits="userSpaceOnUse" x1="193.739" x2="193.739" xlink:href="#lg2" y1="245.333" y2="191.896"/><linearGradient id="SVGID_11_" gradientUnits="userSpaceOnUse" x1="378.81" x2="251.666" xlink:href="#lg2" y1="206.191" y2="79.047"/><linearGradient id="SVGID_12_" gradientUnits="userSpaceOnUse" x1="378.507" x2="332.507" xlink:href="#lg2" y1="466.192" y2="438.192"/><linearGradient id="SVGID_13_" gradientUnits="userSpaceOnUse" x1="159.52" x2="211.077" xlink:href="#lg1" y1="31.86" y2="83.416"/><linearGradient id="SVGID_14_" gradientUnits="userSpaceOnUse" x1="228.357" x2="130.894" xlink:href="#lg1" y1="100.697" y2="3.234"/><linearGradient id="SVGID_15_" gradientUnits="userSpaceOnUse" x1="189.564" x2="189.564" xlink:href="#lg2" y1="38.793" y2="65.938"/><linearGradient id="SVGID_16_" gradientUnits="userSpaceOnUse" x1="48.433" x2="339.774" xlink:href="#lg1" y1="179.305" y2="470.646"/><linearGradient id="SVGID_17_" gradientUnits="userSpaceOnUse" x1="273.93" x2="-40.793" xlink:href="#lg1" y1="404.802" y2="90.079"/><linearGradient id="SVGID_18_" gradientUnits="userSpaceOnUse" x1="98.714" x2="98.714" xlink:href="#lg2" y1="218.363" y2="170.169"/><linearGradient id="SVGID_19_" gradientUnits="userSpaceOnUse" x1="151.026" x2="220.102" xlink:href="#lg2" y1="470.608" y2="470.608"/><linearGradient id="SVGID_20_" gradientUnits="userSpaceOnUse" x1="51.722" x2="386.362" xlink:href="#lg1" y1="94.222" y2="428.863"/><linearGradient id="SVGID_21_" gradientUnits="userSpaceOnUse" x1="337.666" x2="-16.03" xlink:href="#lg1" y1="434.808" y2="81.112"/><linearGradient id="SVGID_22_" gradientUnits="userSpaceOnUse" x1="244.901" x2="194.187" xlink:href="#lg1" y1="502.844" y2="452.129"/><linearGradient id="SVGID_23_" gradientTransform="matrix(-1 0 0 -1 -493 -2377)" gradientUnits="userSpaceOnUse" x1="-698.843" x2="-732.169" xlink:href="#lg1" y1="-2840.785" y2="-2874.112"/><linearGradient id="SVGID_24_" gradientUnits="userSpaceOnUse" x1="216.073" x2="165.046" xlink:href="#lg2" y1="139.392" y2="88.365"/><g><g><g><path d="m228.295 122.174c-91.509 50.87-124.449 166.28-73.579 257.789 50.87 91.508 166.28 124.449 257.789 73.579s124.449-166.28 73.579-257.789-166.281-124.45-257.789-73.579zm157.388 283.119c-64.853 36.053-146.666 12.701-182.718-52.152s-12.701-146.666 52.152-182.718 146.666-12.701 182.719 52.152c36.052 64.853 12.7 146.665-52.153 182.718z" fill="url(#SVGID_1_)"/><path d="m241.453 145.843c-78.436 43.603-106.671 142.526-63.068 220.962s142.526 106.671 220.962 63.068 106.671-142.526 63.068-220.962c-43.603-78.437-142.526-106.671-220.962-63.068zm144.23 259.45c-64.853 36.053-146.666 12.701-182.718-52.152s-12.701-146.666 52.152-182.718 146.666-12.701 182.719 52.152c36.052 64.853 12.7 146.665-52.153 182.718z" fill="url(#SVGID_2_)"/><path d="m186.591 300.276c-4.74-51.399 20.516-103.165 68.526-129.853l-26.822-48.249c-75.057 41.725-110.698 126.868-93.021 206.629z" fill="url(#SVGID_3_)"/><path d="m458.289 418-28.757-51.729c-11.203 15.615-25.94 29.066-43.85 39.022-24.668 13.713-51.789 18.823-77.913 16.333l30.564 54.981c25.302-2.391 50.534-9.925 74.171-23.065 17.454-9.703 32.768-21.758 45.785-35.542z" fill="url(#SVGID_4_)"/><path d="m328.412 85.276-27.507-49.481c-8.144-14.649-26.621-19.923-41.27-11.78l-131.253 72.964c-14.649 8.144-19.923 26.621-11.78 41.27l38.369 69.021c3.278 7.389 12.389 11.935 21.012 7.142l77.858-43.282c64.9-36.078 147.447-13.755 183.756 51.017 32.57 58.102 17.319 129.959-32.836 170.313-10.466 8.421-13.337 23.16-6.81 34.901 8.324 14.974 28.125 18.813 41.473 8.074 70.595-56.795 92.175-157.806 46.66-239.682-29.465-53.004-80.326-86.384-135.758-95.239-9.259-1.478-17.358-7.043-21.914-15.238z" fill="url(#SVGID_5_)"/><path d="m462.415 208.91c-43.603-78.436-142.526-106.671-220.962-63.068-29.619 16.465-52.073 40.822-66.21 68.982l78.599-43.694c64.9-36.078 147.447-13.754 183.756 51.017 32.57 58.102 17.319 129.959-32.836 170.313-10.466 8.421-13.337 23.159-6.81 34.9.472.849.986 1.658 1.529 2.435 78.333-43.64 106.512-142.493 62.934-220.885z" fill="url(#SVGID_6_)"/><circle cx="425.341" cy="411.251" fill="url(#SVGID_7_)" r="18.227"/><circle cx="425.341" cy="411.251" fill="url(#SVGID_8_)" r="11.978"/></g><path d="m231.476 86.447c-5.584-10.046-18.491-13.448-28.351-7.247-8.905 5.601-11.97 17.444-6.93 26.678 2.957 5.418 8.032 8.921 13.628 10.068 4.065.833 7.515 3.505 9.531 7.131l6.739 12.123c2.136 3.842 6.901 5.585 10.873 3.702 4.353-2.064 5.996-7.333 3.693-11.476l-6.875-12.368c-2.004-3.605-2.496-7.93-1.052-11.795 1.989-5.327 1.724-11.455-1.256-16.816z" fill="url(#SVGID_9_)"/></g><path d="m254.487 170.783c.721-.396 1.446-.777 2.171-1.159h-122.614l17.652 31.753c-21.246 41.537-26.868 90.317-14.13 136.623h58.169c-24.918-61.732-.682-133.764 58.752-167.217z" fill="url(#SVGID_10_)"/><path d="m286.667 158.095c35.251-8.939 72.393-3.299 102.895 14.8l-102.895-102.895z" fill="url(#SVGID_11_)"/><path d="m393 462.971v-62.062c-2.379 1.525-4.813 2.993-7.317 4.384-26.104 14.512-54.955 19.392-82.464 15.822l-45.599 45.599c42.947 15.058 91.108 14.676 135.38-3.743z" fill="url(#SVGID_12_)"/><g><g><path d="m189.564 123.807c-34.133 0-61.904-27.77-61.904-61.903 0-34.134 27.77-61.904 61.904-61.904s61.904 27.77 61.904 61.904c-.001 34.133-27.771 61.903-61.904 61.903zm0-79.236c-9.557 0-17.333 7.776-17.333 17.333s7.776 17.333 17.333 17.333 17.333-7.776 17.333-17.333c0-9.558-7.776-17.333-17.333-17.333z" fill="url(#SVGID_13_)"/><path d="m189.564 20.635c-22.756 0-41.269 18.513-41.269 41.269s18.513 41.269 41.269 41.269 41.269-18.513 41.269-41.269-18.513-41.269-41.269-41.269zm0 58.602c-9.557 0-17.333-7.776-17.333-17.333s7.776-17.333 17.333-17.333 17.333 7.776 17.333 17.333-7.776 17.333-17.333 17.333z" fill="url(#SVGID_14_)"/><path d="m189.564 123.807c-34.133 0-61.904-27.77-61.904-61.903 0-34.134 27.77-61.904 61.904-61.904s61.904 27.77 61.904 61.904c-.001 34.133-27.771 61.903-61.904 61.903zm0-79.236c-9.557 0-17.333 7.776-17.333 17.333s7.776 17.333 17.333 17.333 17.333-7.776 17.333-17.333c0-9.558-7.776-17.333-17.333-17.333z" fill="url(#SVGID_15_)"/></g><g><path d="m189.564 130.872c-104.698 0-189.564 84.867-189.564 189.564s84.866 189.564 189.564 189.564 189.564-84.866 189.564-189.564-84.866-189.564-189.564-189.564zm0 323.925c-74.201 0-134.361-60.16-134.361-134.361s60.16-134.361 134.361-134.361 134.361 60.161 134.361 134.361-60.16 134.361-134.361 134.361z" fill="url(#SVGID_16_)"/><path d="m189.564 157.953c-89.741 0-162.483 72.743-162.483 162.483s72.742 162.483 162.483 162.483 162.483-72.742 162.483-162.483-72.742-162.483-162.483-162.483zm0 296.844c-74.201 0-134.361-60.16-134.361-134.361s60.16-134.361 134.361-134.361 134.361 60.161 134.361 134.361-60.16 134.361-134.361 134.361z" fill="url(#SVGID_17_)"/><path d="m66.578 266.275c20.831-47.227 68.057-80.2 122.986-80.2v-55.203c-85.875 0-158.395 57.1-181.699 135.403z" fill="url(#SVGID_18_)"/><path d="m246.85 501.181v-59.185c-17.378 8.205-36.794 12.801-57.286 12.801-28.224 0-54.411-8.711-76.034-23.581v62.906c23.277 10.203 48.99 15.878 76.034 15.878 19.968 0 39.211-3.096 57.286-8.819z" fill="url(#SVGID_19_)"/><path d="m294.997 147.268v-56.614c0-16.761-13.587-30.348-30.348-30.348h-150.17c-16.761 0-30.348 13.587-30.348 30.348v78.969c-.725 8.051 5.029 16.451 14.895 16.451h89.079c74.254 0 135.556 59.619 135.819 133.873.237 66.608-48.007 122.003-111.451 132.904-13.239 2.275-22.91 13.762-22.91 27.195 0 17.132 15.441 30.109 32.325 27.208 89.297-15.34 157.238-93.141 157.239-186.818 0-60.643-28.235-114.531-72.382-149.203-7.373-5.79-11.748-14.589-11.748-23.965z" fill="url(#SVGID_20_)"/><path d="m352.047 320.436c0-89.741-72.743-162.483-162.483-162.483-33.888 0-65.348 10.378-91.386 28.122h89.927c74.254 0 135.556 59.62 135.819 133.873.237 66.608-48.007 122.003-111.451 132.904-13.239 2.275-22.91 13.762-22.91 27.195 0 .972.056 1.928.153 2.871 89.671-.083 162.331-72.792 162.331-162.482z" fill="url(#SVGID_21_)"/><circle cx="221.331" cy="479.274" fill="url(#SVGID_22_)" r="18.227"/><circle cx="221.331" cy="479.274" fill="url(#SVGID_23_)" r="11.978"/></g><path d="m209.703 101.192c0-11.493-9.628-20.738-21.259-20.109-10.504.568-18.938 9.431-19.019 19.95-.048 6.172 2.686 11.7 7.02 15.421 3.148 2.703 4.865 6.715 4.865 10.864v13.87c0 4.396 3.318 8.235 7.704 8.519 4.807.311 8.803-3.496 8.803-8.236v-14.15c0-4.125 1.672-8.144 4.811-10.821 4.328-3.69 7.075-9.174 7.075-15.308z" fill="url(#SVGID_24_)"/></g></g></svg>