<svg id="Capa_1" enable-background="new 0 0 512 512" height="512" viewBox="0 0 512 512" width="512" xmlns="http://www.w3.org/2000/svg"><g><path d="m456.367 295.335-7.554-40.543 28.487-12.077 20.044 12.791c4.999 3.19 4.999 10.491 0 13.682z" fill="#8b818e"/><path d="m370.862 61.527c-14.515 0-14.515-52.543 0-52.543-47.298 0-89.238 23.386-114.862 59.204v163.865c8.225 11.498 18.131 21.717 29.357 30.292l85.505-23.639c-48.927 0-88.585-39.667-88.585-88.585 0-48.926 39.657-88.594 88.585-88.594z" fill="#8b818e"/><g fill="#a298a5"><path d="m302.29 346.725h26.228v41.207h-26.228z"/><path d="m55.633 295.335 11.559-44.549c-7.624-5.824-26.198-.846-32.492-8.072l-20.044 12.791c-5 3.19-4.999 10.491 0 13.682z"/><path d="m72.566 346.725h26.228v41.207h-26.228z"/><path d="m141.138 8.984c14.515 0 14.515 52.543 0 52.543 48.928 0 88.585 39.668 88.585 88.595 0 48.917-39.657 88.585-88.585 88.585l85.505 23.639c33.792-25.814 55.633-66.512 55.633-112.223 0-77.833-63.316-141.139-141.138-141.139z"/></g><path d="m184.064 403.057c-15.832 0-28.713-12.88-28.713-28.712v-19.893c0-4.268 3.459-7.726 7.726-7.726h41.973c4.267 0 7.726 3.459 7.726 7.726v19.893c.001 15.832-12.88 28.712-28.712 28.712zm-13.26-51.966v23.254c0 7.311 5.948 13.26 13.26 13.26s13.261-5.949 13.261-13.26v-23.254z" fill="#dfdde2"/><path d="m207.367 501.275c-7.353 0-14.705-2.799-20.303-8.395l-21.576-21.576c-11.195-11.196-11.195-29.411 0-40.607 0-.001 0-.001 0-.001 11.195-11.193 29.41-11.193 40.606 0l21.576 21.576c11.195 11.196 11.195 29.411 0 40.608-5.598 5.597-12.95 8.395-20.303 8.395zm-30.952-59.652c-5.171 5.171-5.171 13.583 0 18.755l21.576 21.575c5.171 5.17 13.583 5.17 18.753 0 2.505-2.504 3.884-5.834 3.884-9.376s-1.38-6.872-3.884-9.376l-21.576-21.576c-5.171-5.17-13.583-5.171-18.753 0z" fill="#dfdde2"/><path d="m314.536 503.016h-30.514c-15.832 0-28.713-12.88-28.713-28.713s12.881-28.713 28.713-28.713h30.514c15.832 0 28.713 12.88 28.713 28.713s-12.88 28.713-28.713 28.713zm-30.513-41.974c-7.312 0-13.261 5.949-13.261 13.261s5.949 13.261 13.261 13.261h30.514c7.312 0 13.261-5.949 13.261-13.261s-5.949-13.261-13.261-13.261z" fill="#dfdde2"/><path d="m184.064 457c-4.267 0-7.726-3.459-7.726-7.726v-72.487c0-4.268 3.459-7.726 7.726-7.726s7.726 3.459 7.726 7.726v72.487c0 4.267-3.459 7.726-7.726 7.726z" fill="#f1f1f4"/><path d="m281.581 482.029h-72.487c-4.267 0-7.726-3.459-7.726-7.726 0-4.268 3.459-7.726 7.726-7.726h72.487c4.267 0 7.726 3.459 7.726 7.726s-3.459 7.726-7.726 7.726z" fill="#f1f1f4"/><path d="m414.495 403.057c-15.833 0-28.713-12.88-28.713-28.712v-19.893c0-4.268 3.459-7.726 7.726-7.726h41.973c4.267 0 7.726 3.459 7.726 7.726v19.893c0 15.832-12.88 28.712-28.712 28.712zm-13.261-51.966v23.254c0 7.311 5.948 13.26 13.26 13.26s13.261-5.949 13.261-13.26v-23.254z" fill="#dfdde2"/><path d="m391.191 501.275c-7.353 0-14.706-2.799-20.303-8.395-11.195-11.196-11.195-29.411 0-40.607v-.001l21.576-21.576c11.195-11.193 29.411-11.193 40.607 0 11.195 11.196 11.195 29.412 0 40.608l-21.576 21.576c-5.598 5.597-12.951 8.395-20.304 8.395zm-9.376-38.076c-5.171 5.171-5.171 13.583 0 18.754 5.169 5.166 13.581 5.169 18.754-.001l21.575-21.576c5.17-5.17 5.171-13.582 0-18.754-5.17-5.168-13.582-5.17-18.754.001l-21.575 21.577z" fill="#dfdde2"/><path d="m414.494 457c-4.267 0-7.726-3.459-7.726-7.726v-72.487c0-4.268 3.459-7.726 7.726-7.726s7.726 3.459 7.726 7.726v72.487c.001 4.267-3.459 7.726-7.726 7.726z" fill="#f1f1f4"/><path d="m389.465 482.029h-72.487c-4.267 0-7.726-3.459-7.726-7.726 0-4.268 3.459-7.726 7.726-7.726h72.487c4.267 0 7.726 3.459 7.726 7.726s-3.459 7.726-7.726 7.726z" fill="#f1f1f4"/><path d="m209.71 238.707c9.352 0 16.933 7.581 16.933 16.933v81.879c0 9.344-7.578 16.933-16.933 16.933h-137.144c-9.355 0-16.933-7.589-16.933-16.933v-67.411c0-4.748-2.066-9.269-5.686-12.341-30.535-25.913-49.947-64.551-49.947-107.645 0-77.832 63.317-141.138 141.138-141.138 14.507 0 26.264 11.749 26.277 26.242.013 14.542-12.456 26.188-26.998 26.304-48.596.387-87.863 39.905-87.863 88.592 0 48.917 39.657 88.585 88.585 88.585z" fill="#c6c1c8"/><path d="m161.145 284.468c0-11.808-10.23-21.227-22.312-19.877-9.084 1.015-16.449 8.301-17.549 17.375-.815 6.723 1.708 12.889 6.132 17.061.526.496.8 1.199.8 1.922v14.828c0 7.137 5.785 12.921 12.922 12.921 7.137 0 12.922-5.785 12.922-12.922v-14.836c0-.716.273-1.416.794-1.907 3.873-3.648 6.291-8.824 6.291-14.565z" fill="#665e66"/><path d="m58.968 398.451v-10.261c0-4.409 3.574-7.983 7.983-7.983h37.458c4.409 0 7.983 3.574 7.983 7.983v10.261c0 4.409-3.574 7.983-7.983 7.983h-37.458c-4.409 0-7.983-3.574-7.983-7.983z" fill="#c6c1c8"/><path d="m302.29 238.707c-9.352 0-16.933 7.581-16.933 16.933v81.879c0 9.344 7.578 16.933 16.933 16.933h137.144c9.355 0 16.933-7.589 16.933-16.933v-67.411c0-4.748 2.066-9.269 5.686-12.341 30.535-25.913 49.947-64.551 49.947-107.645 0-77.832-63.317-141.138-141.138-141.138-14.507 0-26.264 11.749-26.277 26.242-.013 14.542 12.456 26.188 26.998 26.304 48.596.387 87.863 39.905 87.863 88.592 0 48.917-39.657 88.585-88.585 88.585z" fill="#c6c1c8"/><path d="m209.71 238.707h-24.274v63.858c0 17.277-14.006 31.282-31.282 31.282h-98.52v3.671c0 9.344 7.578 16.933 16.933 16.933h137.143c9.354 0 16.933-7.589 16.933-16.933v-81.878c0-9.352-7.581-16.933-16.933-16.933z" fill="#afaab4"/><path d="m412.349 15.205c35.387 25.669 58.444 67.346 58.444 114.314 0 43.094-19.412 81.732-49.948 107.644-3.62 3.072-5.686 7.594-5.686 12.341v53.061c0 17.277-14.006 31.282-31.282 31.282h-98.52v3.671c0 9.344 7.578 16.933 16.933 16.933h137.144c9.355 0 16.933-7.589 16.933-16.933v-67.411c0-4.748 2.066-9.269 5.686-12.341 30.535-25.912 49.947-64.55 49.947-107.644 0-63.398-42.011-117.158-99.651-134.917z" fill="#afaab4"/><path d="m390.868 284.468c0-11.808-10.23-21.227-22.312-19.877-9.084 1.015-16.449 8.301-17.549 17.375-.815 6.723 1.708 12.889 6.132 17.061.526.496.8 1.199.8 1.922v14.828c0 7.137 5.785 12.921 12.922 12.921 7.137 0 12.922-5.785 12.922-12.922v-14.836c0-.716.273-1.416.794-1.907 3.873-3.648 6.291-8.824 6.291-14.565z" fill="#665e66"/><path d="m288.691 398.451v-10.261c0-4.409 3.574-7.983 7.983-7.983h37.458c4.409 0 7.983 3.574 7.983 7.983v10.261c0 4.409-3.574 7.983-7.983 7.983h-37.458c-4.409 0-7.983-3.574-7.983-7.983z" fill="#c6c1c8"/><circle cx="141.139" cy="35.256" fill="#a298a5" r="7.726"/><circle cx="370.862" cy="35.256" fill="#afaab4" r="7.726"/></g></svg>