<svg id="Capa_1" enable-background="new 0 0 512 512" height="512" viewBox="0 0 512 512" width="512" xmlns="http://www.w3.org/2000/svg"><g><g><g><g><g><g><path d="m144.218 421.358h-88.04l8.701-208.356h70.638z" fill="#ffd597"/><path d="m144.214 421.354-8.695-208.354-70.64.002-1.057 25.306h32.845c7.731 0 14.088 6.096 14.41 13.821l7.062 169.225z" fill="#fcc16d"/></g><path d="m132.151 215.074h-63.905c-5.508 0-9.973-4.465-9.973-9.973v-21.797c0-5.508 4.465-9.973 9.973-9.973h63.905c5.508 0 9.973 4.465 9.973 9.973v21.797c-.001 5.508-4.466 9.973-9.973 9.973z" fill="#fb9927"/><path d="m142.123 196.99v-13.686c0-5.508-4.465-9.973-9.973-9.973h-63.904c-5.508 0-9.973 4.465-9.973 9.973v13.686z" fill="#f98824"/><path d="m146.779 450.894h-93.161c-5.508 0-9.973-4.465-9.973-9.973v-21.797c0-5.508 4.465-9.973 9.973-9.973h93.161c5.508 0 9.973 4.465 9.973 9.973v21.797c-.001 5.508-4.466 9.973-9.973 9.973z" fill="#fee7c9"/><path d="m156.751 419.129v21.788c0 5.511-4.461 9.972-9.972 9.972h-25.889c5.511 0 9.972-4.461 9.972-9.972v-21.788c0-5.511-4.461-9.983-9.972-9.983h25.888c5.512.001 9.973 4.472 9.973 9.983z" fill="#ffd597"/></g><g><g><path d="m300.019 421.358h-88.041l8.702-208.356h70.637z" fill="#ffd597"/><path d="m300.018 421.354-8.705-208.354-70.634.002-1.057 25.306h32.841c7.731 0 14.087 6.096 14.41 13.82l7.07 169.226z" fill="#fcc16d"/></g><path d="m287.951 215.074h-63.905c-5.508 0-9.973-4.465-9.973-9.973v-21.797c0-5.508 4.465-9.973 9.973-9.973h63.905c5.508 0 9.973 4.465 9.973 9.973v21.797c0 5.508-4.465 9.973-9.973 9.973z" fill="#fb9927"/><path d="m297.924 196.99v-13.686c0-5.508-4.465-9.973-9.973-9.973h-63.905c-5.508 0-9.973 4.465-9.973 9.973v13.686z" fill="#f98824"/><path d="m302.579 450.894h-93.161c-5.508 0-9.973-4.465-9.973-9.973v-21.797c0-5.508 4.465-9.973 9.973-9.973h93.161c5.508 0 9.973 4.465 9.973 9.973v21.797c0 5.508-4.465 9.973-9.973 9.973z" fill="#fee7c9"/><path d="m312.555 419.129v21.788c0 5.511-4.471 9.972-9.972 9.972h-25.888c5.501 0 9.972-4.461 9.972-9.972v-21.788c0-5.511-4.471-9.983-9.972-9.983h25.888c5.502.001 9.972 4.472 9.972 9.983z" fill="#ffd597"/></g><g><g><path d="m455.819 421.358h-88.04l8.701-208.356h70.638z" fill="#ffd597"/><path d="m455.823 421.354-8.705-208.354-70.638.002-1.057 25.306h32.843c7.731 0 14.088 6.096 14.41 13.821l7.062 169.225z" fill="#fcc16d"/></g><path d="m443.751 215.074h-63.905c-5.508 0-9.973-4.465-9.973-9.973v-21.797c0-5.508 4.465-9.973 9.973-9.973h63.905c5.508 0 9.973 4.465 9.973 9.973v21.797c0 5.508-4.465 9.973-9.973 9.973z" fill="#fb9927"/><path d="m453.724 196.99v-13.686c0-5.508-4.465-9.973-9.973-9.973h-63.905c-5.508 0-9.973 4.465-9.973 9.973v13.686z" fill="#f98824"/><path d="m458.379 450.894h-93.161c-5.508 0-9.973-4.465-9.973-9.973v-21.797c0-5.508 4.465-9.973 9.973-9.973h93.161c5.508 0 9.973 4.465 9.973 9.973v21.797c0 5.508-4.465 9.973-9.973 9.973z" fill="#fee7c9"/><path d="m468.35 419.129v21.788c0 5.511-4.461 9.972-9.972 9.972h-25.888c5.511 0 9.972-4.461 9.972-9.972v-21.788c0-5.511-4.461-9.983-9.972-9.983h25.888c5.511.001 9.972 4.472 9.972 9.983z" fill="#ffd597"/></g></g><path d="m490.201 471.386h-468.405v-22.753c0-5.508 4.465-9.973 9.973-9.973h448.46c5.508 0 9.973 4.465 9.973 9.973v22.753z" fill="#fb9927"/><path d="m490.2 448.634v22.757h-27.382v-22.757c0-5.511-4.461-9.972-9.972-9.972h27.382c5.511-.001 9.972 4.46 9.972 9.972z" fill="#f98824"/><g><path d="m499.631 512h-487.265c-5.508 0-9.973-4.465-9.973-9.973v-26.015c0-5.508 4.465-9.973 9.973-9.973h487.265c5.508 0 9.973 4.465 9.973 9.973v26.015c0 5.508-4.465 9.973-9.973 9.973z" fill="#ffd597"/><path d="m509.608 476.016v26.012c0 5.511-4.471 9.972-9.982 9.972h-27.372c5.501 0 9.972-4.461 9.972-9.972v-26.012c0-5.512-4.471-9.972-9.972-9.972h27.372c5.512 0 9.982 4.46 9.982 9.972z" fill="#fcc16d"/></g></g><g><path d="m255.999 20.411-231.048 158.921h462.095z" fill="#ffd597"/><path d="m487.048 179.334h-79.489l-151.56-104.244-151.561 104.244h-79.488l231.049-158.926z" fill="#fcc16d"/></g><g><path d="m483.888 201.933-227.889-156.749-227.89 156.749c-4.644 3.194-10.998 2.019-14.192-2.625l-11.566-16.817c-3.194-4.644-2.019-10.998 2.625-14.192l239.456-164.704c6.966-4.793 16.167-4.793 23.134 0l239.456 164.705c4.644 3.194 5.819 9.548 2.625 14.192l-11.567 16.817c-3.194 4.643-9.548 5.818-14.192 2.624z" fill="#fee7c9"/></g><g><path d="m509.65 182.486-11.569 16.823c-3.193 4.646-9.55 5.821-14.196 2.627l-22.293-15.329c4.461 1.947 9.797.525 12.651-3.626l11.734-17.049c2.699-3.935 2.308-9.076-.629-12.548l21.675 14.917c4.646 3.193 5.82 9.549 2.627 14.185z" fill="#ffd597"/></g></g><path d="m293.417 123.006h-.106v-19.453c1.964-1.401 3.249-3.693 3.249-6.289 0-4.267-3.459-7.726-7.726-7.726h-25.114c-.065-4.211-3.493-7.606-7.72-7.606s-7.655 3.395-7.72 7.606h-25.115c-4.268 0-7.726 3.459-7.726 7.726 0 2.596 1.285 4.888 3.248 6.289v19.453h-.105c-4.268 0-7.726 3.459-7.726 7.726s3.459 7.726 7.726 7.726h15.663c4.268 0 7.726-3.459 7.726-7.726s-3.459-7.726-7.726-7.726h-.106v-18.016h14.134v37.977h-8.634c-4.268 0-7.726 3.459-7.726 7.726s3.459 7.726 7.726 7.726h32.719c4.268 0 7.726-3.459 7.726-7.726s-3.459-7.726-7.726-7.726h-8.633v-37.977h14.133v18.016h-.106c-4.268 0-7.726 3.459-7.726 7.726s3.459 7.726 7.726 7.726h15.664c4.268 0 7.726-3.459 7.726-7.726.001-4.267-3.458-7.726-7.725-7.726z" fill="#fb9927"/></g></svg>