<?xml version="1.0" encoding="iso-8859-1"?>
<!-- Generator: Adobe Illustrator 19.0.0, SVG Export Plug-In . SVG Version: 6.00 Build 0)  -->
<svg xmlns="http://www.w3.org/2000/svg" xmlns:xlink="http://www.w3.org/1999/xlink" version="1.1" id="Layer_1" x="0px" y="0px" viewBox="0 0 512.126 512.126" style="enable-background:new 0 0 512.126 512.126;" xml:space="preserve" width="512" height="512">
<g>
	<polygon style="fill:none;" points="75.126,207.449 31.278,317.063 118.974,317.063  "/>
	<path style="fill:#FFB64C;" d="M50.121,189.182L1.195,311.497l-1.069,5.566l13.647,15l17.505-15l43.848-109.614l43.848,109.614   l15.034,15l16.117-15l-49.951-127.778C95.527,189.275,119.067,189.323,50.121,189.182z"/>
	<path style="fill:#FFD396;" d="M0.126,317.063c0,41.353,33.647,75,75,75s75-33.647,75-75   C145.171,317.063-4.953,317.063,0.126,317.063z"/>
	<path style="fill:#FF9100;" d="M412.121,189.182l-48.926,122.314l-1.069,5.566l13.647,15l17.505-15l43.848-109.614l43.848,109.614   l15.034,15l16.117-15l-49.951-127.778C457.527,189.275,481.067,189.323,412.121,189.182z"/>
	<path style="fill:#FFB64C;" d="M362.126,317.063c0,41.353,33.647,75,75,75s75-33.647,75-75   C507.171,317.063,357.047,317.063,362.126,317.063z"/>
	<rect x="241.126" y="75.063" style="fill:#FFB64C;" width="30" height="242"/>
	<rect x="256.126" y="75.063" style="fill:#FF9100;" width="15" height="242"/>
	<path style="fill:#FFD396;" d="M256.126,0.063c-24.6,0-45,20.099-45,45c0,24.6,20.4,45,45,45c24.901,0,45-20.4,45-45   C301.126,20.162,281.027,0.063,256.126,0.063z"/>
	<path style="fill:#FFB64C;" d="M256.126,90.063v-90c24.901,0,45,20.099,45,45C301.126,69.663,281.027,90.063,256.126,90.063z"/>
	<path style="fill:#FFD396;" d="M482.126,167.063c0,24.6-20.099,45-45,45c-18.6,0-35.7-12.001-42.001-29.7l28.2-10.201   c2.1,5.7,7.8,9.901,13.801,9.901c8.401,0,15-6.901,15-15c0-8.401-6.599-15-15-15h-362c-8.101,0-15,6.599-15,15   c0,8.099,6.899,15,15,15c6.301,0,12.001-4.2,14.099-9.901l28.2,10.201c-6.299,17.699-23.399,29.7-42.299,29.7   c-24.6,0-45-20.4-45-45c0-24.901,20.4-45,45-45h362C462.027,122.063,482.126,142.162,482.126,167.063z"/>
	<path style="fill:#FFB64C;" d="M482.126,167.063c0,24.6-20.099,45-45,45c-18.6,0-35.7-12.001-42.001-29.7l28.2-10.201   c2.1,5.7,7.8,9.901,13.801,9.901c8.401,0,15-6.901,15-15c0-8.401-6.599-15-15-15h-181v-30h181   C462.027,122.063,482.126,142.162,482.126,167.063z"/>
	<rect x="211.126" y="212.063" style="fill:#FFD396;" width="90" height="30"/>
	<rect x="256.126" y="212.063" style="fill:#FFB64C;" width="45" height="30"/>
	<path style="fill:#FFD396;" d="M211.126,302.063v150h90v-150H211.126z"/>
	<path style="fill:#FFB64C;" d="M391.126,467.063v30h-270v-30c0-24.901,20.4-45,45-45h180   C371.027,422.063,391.126,442.162,391.126,467.063z"/>
	<rect x="256.126" y="302.063" style="fill:#FFB64C;" width="45" height="150"/>
	<path style="fill:#FF9100;" d="M391.126,467.063v30h-135v-75h90C371.027,422.063,391.126,442.162,391.126,467.063z"/>
	<rect x="61.126" y="482.063" style="fill:#FFD396;" width="390" height="30"/>
	<rect x="256.126" y="482.063" style="fill:#FFB64C;" width="195" height="30"/>
</g>















</svg>
