<svg id="Layer_3" enable-background="new 0 0 64 64" height="512" viewBox="0 0 64 64" width="512" xmlns="http://www.w3.org/2000/svg"><g><path d="m62.707 15.293-2-2-.939-.939c-.873-.874-2.034-1.354-3.268-1.354-.7 0-1.358-.272-1.854-.768l-.879-.879c-.495-.495-.767-1.153-.767-1.853 0-1.234-.48-2.395-1.354-3.268l-.939-.939-2-2c-.391-.391-1.023-.391-1.414 0l-10 10c-.391.391-.391 1.023 0 1.414l2 2 .939.939c.82.821 1.898 1.278 3.05 1.332l-11.282 10.074-11.282-10.073c1.151-.054 2.229-.511 3.05-1.332l.939-.939 2-2c.391-.391.391-1.023 0-1.414l-10-10c-.391-.391-1.023-.391-1.414 0l-2 2-.939.939c-.874.872-1.354 2.033-1.354 3.267 0 .7-.272 1.358-.768 1.854l-.879.879c-.495.495-1.153.767-1.853.767-1.234 0-2.395.48-3.268 1.354l-.939.939-2 2c-.391.391-.391 1.023 0 1.414l10 10c.195.195.451.293.707.293s.512-.098.707-.293l2-2 .939-.939c.821-.82 1.278-1.898 1.332-3.05l9.81 10.987-7.301 6.519c-.945.844-1.487 2.055-1.487 3.322 0 2.456 1.998 4.454 4.454 4.454 1.267 0 2.478-.542 3.322-1.487l6.224-6.971 6.224 6.971c.844.945 2.055 1.487 3.322 1.487 2.456 0 4.454-1.998 4.454-4.454 0-1.267-.542-2.478-1.487-3.322l-7.301-6.519 9.81-10.987c.054 1.151.511 2.229 1.332 3.05l.939.939 2 2c.195.195.451.293.707.293s.512-.098.707-.293l10-10c.391-.391.391-1.023 0-1.414zm-14.707-11.879.586.586-8.586 8.586-.586-.586zm-1.039 12.961.664.664-2.439 2.732-.956-.956zm-27.19 2.44-.956.956-2.439-2.732.664-.664zm-3.771-15.401 8.586 8.586-.586.586-8.586-8.586zm-4 21.172-8.586-8.586.586-.586 8.586 8.586zm3-4.086c0 .7-.272 1.358-.768 1.854l-.232.232-8.586-8.586.232-.232c.496-.496 1.154-.768 1.854-.768 1.234 0 2.395-.48 3.268-1.354l.879-.879c.873-.872 1.353-2.033 1.353-3.267 0-.7.272-1.358.768-1.854l.232-.232 8.586 8.586-.232.232c-.496.496-1.154.768-1.854.768-.567 0-1.112.123-1.637.323l-1.197-1.069c-.396-.353-.998-.336-1.373.039l-2 2c-.375.375-.392.978-.039 1.373l1.069 1.197c-.2.525-.323 1.07-.323 1.637zm9.284 22.681c-.465.52-1.132.819-1.83.819-1.353 0-2.454-1.101-2.454-2.454 0-.698.299-1.365.819-1.83l7.302-6.519 2.538 2.843zm19.716-1.635c0 1.353-1.101 2.454-2.454 2.454-.698 0-1.365-.299-1.83-.819l-19.567-21.916 1.116-1.116 21.915 19.567c.521.465.82 1.132.82 1.83zm-10.498-13.153 9.233-8.244 1.116 1.116-8.132 9.108zm16.498-5.807-.232-.232c-.496-.496-.768-1.154-.768-1.854 0-.567-.123-1.112-.323-1.637l1.069-1.197c.353-.396.336-.998-.039-1.373l-2-2c-.375-.375-.978-.391-1.373-.039l-1.197 1.069c-.525-.2-1.07-.323-1.637-.323-.7 0-1.358-.272-1.854-.768l-.232-.232 8.586-8.586.232.232c.496.496.768 1.154.768 1.854 0 1.234.48 2.395 1.354 3.268l.879.879c.872.873 2.033 1.353 3.267 1.353.7 0 1.358.272 1.854.768l.232.232zm2 2-.586-.586 8.586-8.586.586.586z"/><path d="m47 57h-1v-2c0-.552-.448-1-1-1h-5v-2c0-.552-.448-1-1-1h-14c-.552 0-1 .448-1 1v2h-5c-.552 0-1 .448-1 1v2h-1c-1.654 0-3 1.346-3 3v2c0 .552.448 1 1 1h34c.552 0 1-.448 1-1v-2c0-1.654-1.346-3-3-3zm-21-4h12v1h-12zm-6 3h24v1h-24zm28 5h-32v-1c0-.551.449-1 1-1h30c.551 0 1 .449 1 1z"/></g></svg>