<svg id="Layer_1" enable-background="new 0 0 512 512" height="512" viewBox="0 0 512 512" width="512" xmlns="http://www.w3.org/2000/svg"><g><g><path d="m438.11 0h-346.329c-25.243 0-45.781 20.538-45.781 45.782v420.436c0 25.244 20.538 45.782 45.781 45.782h346.329c15.379 0 27.89-12.512 27.89-27.891v-456.218c0-15.379-12.511-27.891-27.89-27.891zm-372.11 466.218c0-14.216 11.565-25.782 25.781-25.782h314.217v51.564h-314.217c-14.215 0-25.781-11.565-25.781-25.782zm380 17.891c0 4.351-3.539 7.891-7.89 7.891h-12.111v-51.564h12.111c2.739 0 5.387-.397 7.89-1.136zm0-71.564c0 4.351-3.539 7.891-7.89 7.891h-332.109v-280.435c0-5.523-4.477-10-10-10s-10 4.477-10 10v280.804c-7.347.93-14.159 3.602-20.001 7.597v-382.62c0-12.229 8.56-22.489 20.001-25.121v29.34c0 5.523 4.477 10 10 10s10-4.477 10-10v-30.001h332.109c4.351 0 7.89 3.54 7.89 7.891z"/><path d="m412.66 212.532c0-8.029-3.112-15.563-8.763-21.212-9.217-9.218-22.988-11.165-34.138-5.855l-59.004-59.004c5.311-11.149 3.363-24.921-5.855-34.139-11.695-11.695-30.728-11.695-42.427 0l-56.568 56.568c-11.697 11.697-11.697 30.729 0 42.427 5.849 5.849 13.53 8.772 21.213 8.772 4.426 0 8.85-.977 12.926-2.918l8.799 8.799-99.265 92.829c-6.447 6.029-10.08 14.311-10.231 23.321-.154 9.233 3.487 18.259 9.99 24.762 6.372 6.372 15.163 9.997 24.198 9.997.188 0 .376-.001.564-.005 9.009-.151 17.292-3.784 23.321-10.231l92.828-99.266 8.799 8.799c-5.311 11.149-3.363 24.921 5.854 34.139 5.849 5.848 13.531 8.772 21.214 8.772 7.682 0 15.364-2.924 21.213-8.772l56.568-56.568c5.651-5.653 8.764-13.186 8.764-21.215zm-100.686 28.283-56.57-56.57 42.425-42.426 56.571 56.57zm-91.926-63.641c-1.874-1.873-2.905-4.384-2.905-7.071s1.032-5.198 2.905-7.071l56.567-56.568c1.95-1.95 4.511-2.925 7.072-2.925s5.121.975 7.07 2.924c3.899 3.899 3.899 10.243 0 14.142l-56.567 56.568c-3.899 3.9-10.243 3.9-14.142.001zm-37.235 155.806c-2.294 2.453-5.507 3.836-9.048 3.896-3.864.033-7.593-1.443-10.286-4.137-2.692-2.692-4.199-6.441-4.135-10.285.059-3.541 1.442-6.754 3.894-9.048l70.521-65.948 15.002 15.001zm79.617-85.138-14.055-14.053 14.617-13.669 13.106 13.106zm127.324-28.239-56.568 56.568c-1.873 1.874-4.384 2.905-7.071 2.905s-5.197-1.031-7.07-2.904c-3.898-3.899-3.898-10.243 0-14.142l56.568-56.568c1.949-1.95 4.51-2.924 7.071-2.924s5.121.975 7.07 2.924c1.873 1.873 2.905 4.384 2.905 7.07s-1.032 5.197-2.905 7.071z"/><path d="m96.001 85.001c-5.523 0-10 4.48-10 10.003s4.477 10 10 10 10-4.477 10-10v-.007c0-5.522-4.477-9.996-10-9.996z"/><path d="m415.999 380.435h-54.996c-5.522 0-10 4.477-10 10s4.478 10 10 10h54.996c5.522 0 10-4.477 10-10s-4.478-10-10-10z"/><path d="m316.006 380.435h-.008c-5.522 0-9.996 4.477-9.996 10s4.481 10 10.004 10 10-4.477 10-10-4.477-10-10-10z"/></g></g></svg>