<svg height="512" viewBox="0 0 128 128" width="512" xmlns="http://www.w3.org/2000/svg" xmlns:xlink="http://www.w3.org/1999/xlink"><linearGradient id="a" gradientUnits="userSpaceOnUse" x1="102.253" x2="25.747" y1="113.908" y2="37.402"><stop offset="0" stop-color="#65d6ce"/><stop offset="1" stop-color="#fca956"/></linearGradient><path d="m63.085 17.509-45 27.624a1.749 1.749 0 0 0 .915 3.241h4.449v1.256a6.369 6.369 0 0 0 5.934 6.344v3.069a3.679 3.679 0 0 0 2.8 3.563l-1.826 35.6h-2.346a6.453 6.453 0 0 0 -6.446 6.447v4.347a1.75 1.75 0 0 0 1.75 1.75h81.37a1.75 1.75 0 0 0 1.75-1.75v-4.348a6.453 6.453 0 0 0 -6.446-6.447h-2.345l-.433-8.454a1.75 1.75 0 0 0 -3.5.179l.425 8.275h-11l1.82-35.48h7.362l.31 6.041a1.75 1.75 0 0 0 3.5-.18l-.307-5.98a3.679 3.679 0 0 0 2.8-3.563v-3.069a6.37 6.37 0 0 0 5.934-6.344v-1.256h4.445a1.749 1.749 0 0 0 .915-3.241l-45-27.624a1.747 1.747 0 0 0 -1.83 0zm32.9 84.2h4.008a2.949 2.949 0 0 1 2.946 2.947v2.6h-77.874v-2.6a2.949 2.949 0 0 1 2.946-2.947h67.97zm-51.28-42.484h-11.64a.181.181 0 0 1 -.182-.182v-3.043h12.958v3.047a.181.181 0 0 1 -.182.182zm.158 38.98h-11l1.821-35.48h7.362zm11.957-35.6-1.827 35.6h-6.625l-1.827-35.6a3.679 3.679 0 0 0 2.8-3.563v-3.042h4.68v3.047a3.679 3.679 0 0 0 2.799 3.559zm12.524-3.381h-11.644a.181.181 0 0 1 -.181-.182v-3.042h12.96v3.047a.181.181 0 0 1 -.181.182zm.158 38.98h-11l1.82-35.48h7.364zm11.957-35.6-1.827 35.6h-6.625l-1.827-35.6a3.679 3.679 0 0 0 2.8-3.563v-3.041h4.68v3.047a3.679 3.679 0 0 0 2.799 3.559zm13.658-3.563a.181.181 0 0 1 -.182.182h-12.594a.181.181 0 0 1 -.182-.182v-3.041h12.958zm5.934-9.413a2.869 2.869 0 0 1 -2.866 2.872h-68.37a2.869 2.869 0 0 1 -2.866-2.866v-1.26h74.1zm1.75-4.756h-77.601l38.8-23.819 38.8 23.821zm-6.177 33.441.05.965a1.75 1.75 0 0 1 -1.658 1.838h-.091a1.75 1.75 0 0 1 -1.747-1.66l-.05-.965a1.75 1.75 0 0 1 1.658-1.838 1.772 1.772 0 0 1 1.838 1.66z" fill="url(#a)"/></svg>