<svg id="Layer_1" enable-background="new 0 0 512 512" height="512" viewBox="0 0 512 512" width="512" xmlns="http://www.w3.org/2000/svg"><g><path d="m500.697 254.733c-6.391-129.612-113.499-232.738-244.697-232.738-135.311 0-245.002 109.691-245.002 245.003 0 43.735 11.473 84.786 31.553 120.329l259.488 85.984z" fill="#73c3f9"/><path d="m501.002 266.998c0-4.464-.127-8.897-.363-13.302-4.764-2.283-10.811-1.653-14.859 2.786-.077.084-.153.168-.228.253-1.98 2.226-5.449 2.256-7.388-.006-11.839-13.813-34.239-12.585-44.511 2.517-1.655 2.433-4.983 2.898-7.346 1.146-18.436-13.677-45.632.635-44.712 23.635.111 2.769-2.085 5.096-4.855 5.153-16.478.338-29.384 15.176-27.286 31.632.358 2.809-1.73 5.268-4.549 5.548-7.529.749-14.476 4.511-19.22 10.467-1.893 2.377-5.254 2.444-7.416.309-12.079-11.921-32.423-10.245-42.419 3.486-1.721 2.365-5.094 2.797-7.295.871-13.909-12.173-36.248-7.446-43.99 9.423-1.186 2.583-4.311 3.67-6.89 2.474-12.596-5.844-27.723-1.505-35.325 10.083-1.576 2.403-4.853 2.914-7.135 1.169-15.442-11.81-38.612-4.186-44.007 14.499-.786 2.723-3.631 4.297-6.315 3.39-12.053-4.073-25.538.517-32.551 11.249-1.498 2.293-4.668 2.901-6.901 1.315-8.244-5.853-18.825-6.651-27.694-2.734l297.637 98.626c85.788-38.119 145.618-124.062 145.618-223.989z" fill="#50dd89"/><path d="m363.238 487.329c-1.717-12.145 4.749-24.351 16.189-29.55 2.588-1.176 3.801-4.255 2.614-6.838-7.749-16.866 3.227-36.89 21.524-39.505 2.895-.414 4.765-3.254 4.094-6.101-3.899-16.53 8.089-33.052 25.003-34.444 3.028-.249 5.168-2.841 4.599-5.826-1.425-7.48.25-15.2 4.589-21.399 1.624-2.321 1.121-5.507-1.243-7.066-13.848-9.134-16.69-28.593-6.207-41.311 1.763-2.138 1.429-5.32-.743-7.041-9.342-7.4-11.991-18.993-9.281-29.162-18.342-11.372-43.669 2.73-42.78 24.94.111 2.769-2.085 5.096-4.855 5.153-16.478.338-29.384 15.176-27.286 31.632.358 2.809-1.73 5.268-4.549 5.548-7.529.749-14.476 4.511-19.22 10.467-1.893 2.377-5.254 2.444-7.416.309-12.079-11.921-32.423-10.245-42.419 3.486-1.721 2.365-5.094 2.797-7.295.871-13.909-12.173-36.248-7.446-43.99 9.423-1.186 2.583-4.311 3.67-6.89 2.474-12.596-5.844-27.723-1.505-35.325 10.083-1.576 2.403-4.853 2.914-7.135 1.169-15.442-11.81-38.612-4.186-44.007 14.499-.786 2.723-3.631 4.297-6.315 3.39-12.053-4.073-25.538.517-32.551 11.249-1.498 2.293-4.668 2.901-6.901 1.315-8.244-5.853-18.825-6.651-27.694-2.734l297.637 98.626c2.643-1.172 5.26-2.393 7.853-3.657z" fill="#38c674"/><path d="m68.149 424.267c44.943 53.625 112.409 87.733 187.851 87.733 25.941 0 50.935-4.045 74.401-11.516v-200.64h-262.252z" fill="#ffdd40"/><path d="m301.805 385.1c-.945-19.817-17.308-35.595-37.359-35.595-20.051 0-36.414 15.778-37.359 35.595z" fill="#ffb332"/><path d="m227.041 510.288c9.499 1.119 19.159 1.712 28.959 1.712 15.673 0 30.996-1.49 45.851-4.302v-116.364h-74.81z" fill="#3c58a0"/><path d="m278.163 394h1.512v-2.667h-52.634v118.954c9.499 1.12 19.159 1.713 28.959 1.713 4.762 0 9.487-.154 14.181-.424-3.481-2.495-5.735-6.555-5.735-11.134v-92.724c0-7.576 6.141-13.718 13.717-13.718z" fill="#2a428c"/><path d="m330.401 247.099v-114.129l-119.745-92.083c-2.443 3.688-6.626 6.122-11.381 6.122s-8.937-2.434-11.381-6.122l-119.745 92.084v114.129h262.252z" fill="#ffdd40"/><path d="m199.275 47.009c-4.755 0-8.937-2.435-11.381-6.122l-119.745 92.083v111.238c.901.972 1.795 1.937 2.681 2.891h99.837v-1.944c-15.03-15.03 0-29.44 0-29.44-7.417-7.417 0-14.667 0-14.667v-65.076c-7.746-7.747 0-14.924 0-14.924-6.667-13.667 8.143-23.667 8.143-23.667s20.579-17.945 30.634-28 26.339-7.151 26.339-7.151c-.222-.847-.39-1.65-.533-2.432l-24.594-18.913c-2.444 3.689-6.626 6.124-11.381 6.124z" fill="#ffb332"/><g><path d="m246.249 208.255h-94.018c-6.672 0-12.131-5.459-12.131-12.131v-55.602c0-6.672 5.459-12.131 12.131-12.131h94.018c6.672 0 12.131 5.459 12.131 12.131v55.602c0 6.672-5.459 12.131-12.131 12.131z" fill="#73c3f9"/></g><path d="m170.667 196.124v-55.602c0-6.672 5.459-12.131 12.131-12.131h-30.567c-6.672 0-12.131 5.459-12.131 12.131v55.602c0 6.672 5.459 12.131 12.131 12.131h30.567c-6.672 0-12.131-5.459-12.131-12.131z" fill="#4fabf7"/><path d="m199.24 300.367h-131.091v58.435l4.141-8.846c6.545-13.982 20.589-22.915 36.027-22.915h90.922 90.922c15.438 0 29.482 8.933 36.027 22.915l4.141 8.846v-58.435z" fill="#e8f4fc"/><path d="m161.449 301.378c-.338-.338-.645-.675-.952-1.011h-92.348v58.435l4.141-8.846c6.545-13.982 20.589-22.915 36.027-22.915h39.783c-9.899-21.34 13.349-25.663 13.349-25.663z" fill="#d3dcfb"/><path d="m189.382 352.538h-82.562c-5.859 0-10.653 4.794-10.653 10.653v89.489c7.927 6.83 16.302 13.152 25.065 18.935h68.15c5.859 0 10.653-4.794 10.653-10.653v-97.771c0-5.859-4.794-10.653-10.653-10.653z" fill="#73c3f9"/><path d="m96.166 363.191v89.489c7.927 6.83 16.302 13.152 25.065 18.935h3.031c.214-4.257 3.154-7.567 3.154-7.567-5.833-1.333-6.083-6.833-6.083-6.833s0-80.833 0-88.171 4.917-8.924 4.917-8.924c-2.741-2.741-3.738-5.327-3.826-7.582h-15.604c-5.86 0-10.654 4.794-10.654 10.653z" fill="#4fabf7"/><path d="m265.228 341.93c-25.17-.432-45.77 20.604-45.77 45.778v121.577c5.006.749 10.064 1.336 15.164 1.777v-115.465c0-.61.495-1.104 1.104-1.104h57.437c.61 0 1.104.495 1.104 1.104v113.422c5.11-.802 10.164-1.767 15.164-2.879v-119.23c.002-24.545-19.756-44.561-44.203-44.98zm-16.011 37.398h-12.14c-.754 0-1.28-.738-1.051-1.457 1.256-3.94 3.313-7.525 5.975-10.567.492-.562 1.385-.5 1.78.134l6.372 10.2c.46.736-.068 1.69-.936 1.69zm22.917-19.741-6.751 10.808c-.433.693-1.441.693-1.874 0l-6.751-10.808c-.404-.647-.044-1.487.697-1.666 2.243-.543 4.584-.834 6.991-.834s4.748.291 6.992.834c.741.18 1.1 1.02.696 1.666zm19.68 19.741h-12.139c-.867 0-1.397-.954-.937-1.69l6.372-10.2c.396-.634 1.288-.696 1.78-.134 2.662 3.043 4.718 6.628 5.975 10.567.23.719-.296 1.457-1.051 1.457z" fill="#4f71b6"/><path d="m261.16 434.539h-4.102v-3.033c0-4.188-3.395-7.582-7.582-7.582-4.188 0-7.582 3.395-7.582 7.582v4.798c-1.663 1.391-2.722 3.48-2.722 5.817 0 2.338 1.059 4.426 2.722 5.817v4.798c0 4.187 3.395 7.582 7.582 7.582s7.582-3.395 7.582-7.582v-3.033h4.102c4.188 0 7.582-3.395 7.582-7.582s-3.394-7.582-7.582-7.582z" fill="#4f71b6"/><path d="m329.1 247.528c-1.343-1.51-3.267-2.373-5.287-2.373h-255.247c-2.389 0-4.616 1.206-5.923 3.205l-16.81 27.744h306.885z" fill="#ff4155"/><path d="m161.449 274.082c-12.551-18.633 9.218-28.928 9.218-28.928h-102.1c-2.389 0-4.616 1.206-5.923 3.205l-16.81 27.744h113.756c1.045-1.292 1.859-2.021 1.859-2.021z" fill="#e80054"/><path d="m329.39 500.812c9.352-2.933 18.464-6.406 27.296-10.393v-190.052h-27.296z" fill="#e8f4fc"/><path d="m41.865 386.1c7.819 14.027 16.973 27.204 27.296 39.363v-125.096h-27.296z" fill="#d3dcfb"/><path d="m410.097 457.46c9.74-7.89 18.873-16.5 27.296-25.771v-21.553h-27.296z" fill="#e8f4fc"/><path d="m423.745 433.866c0-5.649 4.58-10.229 10.229-10.229h3.419v-13.5h-27.296v47.324c4.695-3.804 9.246-7.779 13.648-11.91z" fill="#d3dcfb"/><path d="m437.393 334.594v-14.132c0-7.538-6.11-13.648-13.648-13.648-7.537 0-13.648 6.11-13.648 13.648v14.132z" fill="#d3dcfb"/><path d="m484.71 332.602h-121.93c-3.924 0-7.105 3.181-7.105 7.105v65.317c0 3.924 3.181 7.105 7.105 7.105h121.93c3.924 0 7.105-3.181 7.105-7.105v-65.317c0-3.924-3.181-7.105-7.105-7.105z" fill="#ff4155"/><path d="m187.144 35.383v-21.735c0-2.056.518-3.991 1.424-5.689l-147.642 113.536c-5.975 4.595-7.094 13.163-2.499 19.138 2.688 3.496 6.736 5.329 10.829 5.329 2.903 0 5.83-.923 8.31-2.831l131.54-101.154c-1.236-1.901-1.962-4.162-1.962-6.594z" fill="#e80054"/><path d="m357.625 121.495-147.642-113.536c.906 1.698 1.424 3.634 1.424 5.689v21.735c0 2.432-.726 4.693-1.962 6.594l131.542 101.155c5.976 4.596 14.544 3.475 19.138-2.499 4.594-5.975 3.475-14.543-2.5-19.138z" fill="#ff4155"/><path d="m209.983 7.958c.906 1.698 1.424 3.634 1.424 5.689v21.735c0 2.432-.726 4.693-1.962 6.594l26.339 20.254c-5.884-22.484 17.02-21.345 17.02-21.345z" fill="#e80054"/><path d="m258.38 161.815-43.465-33.425h-36.105l79.57 61.19z" fill="#9bd8f9"/><path d="m200.035 379.765-35.405-27.227h-36.105l71.51 54.991z" fill="#9bd8f9"/><g><path d="m199.275 49.031c-7.538 0-13.648-6.11-13.648-13.648v-21.735c0-7.538 6.11-13.648 13.648-13.648s13.648 6.11 13.648 13.648v21.735c0 7.538-6.11 13.648-13.648 13.648z" fill="#ff7186"/></g><path d="m199.275 27.364c-7.538 0-13.648-6.11-13.648-13.648v21.667c0 7.538 6.11 13.648 13.648 13.648s13.648-6.11 13.648-13.648v-21.666c0 7.537-6.11 13.647-13.648 13.647z" fill="#ff4155"/><g><path d="m366.366 287.73c0 7.538-6.11 13.648-13.648 13.648h-306.885c-7.538 0-13.648-6.11-13.648-13.648s6.11-13.648 13.648-13.648h306.885c7.538 0 13.648 6.111 13.648 13.648z" fill="#ff7186"/></g><path d="m161.449 274.082h-115.616c-7.538 0-13.648 6.11-13.648 13.647 0 7.538 6.11 13.648 13.648 13.648h115.616c-14.444-14.443 0-27.295 0-27.295z" fill="#ff4155"/><g><path d="m462.413 365.626h-10.517c-4.188 0-7.582-3.395-7.582-7.582 0-4.188 3.395-7.582 7.582-7.582h10.517c4.187 0 7.582 3.395 7.582 7.582s-3.394 7.582-7.582 7.582z" fill="#ff7186"/></g><path d="m362.78 332.602c-3.924 0-7.105 3.181-7.105 7.105v65.317c0 3.925 3.181 7.105 7.105 7.105h60.965c-13.648-11.507 0-23.926 0-23.926v-15.035c-19.359-19.359 0-40.567 0-40.567h-60.965z" fill="#e80054"/><g><path d="m462.413 388.204h-77.337c-4.187 0-7.582-3.395-7.582-7.582s3.395-7.582 7.582-7.582h77.337c4.187 0 7.582 3.395 7.582 7.582s-3.394 7.582-7.582 7.582z" fill="#e8f4fc"/></g><path d="m246.249 120.808c-11.406 0-82.553 0-94.018 0-10.87 0-19.713 8.843-19.713 19.714v55.602c0 10.87 8.843 19.713 19.713 19.713h94.018c10.87 0 19.713-8.843 19.713-19.713v-55.602c0-10.87-8.843-19.714-19.713-19.714zm-54.556 76.15c0 2.052-1.663 3.715-3.715 3.715h-35.747c-.308 0-.61-.033-.903-.094-2.051-.433-3.645-2.297-3.645-4.455v-55.602c0-2.158 1.595-4.023 3.645-4.455.293-.062.595-.094.903-.094h35.747c2.052 0 3.715 1.663 3.715 3.715zm59.105-.834c0 2.502-2.047 4.549-4.549 4.549h-35.676c-2.052 0-3.716-1.663-3.716-3.715v-57.27c0-2.052 1.664-3.715 3.716-3.715h35.676c2.502 0 4.549 2.047 4.549 4.549z" fill="#4f71b6"/><path d="m170.667 215.715c-7.417-7.417 0-14.667 0-14.667v-.375h-18.436c-.308 0-.61-.033-.903-.094-2.051-.432-3.645-2.297-3.645-4.455v-55.602c0-2.158 1.595-4.023 3.645-4.455.293-.062.595-.094.903-.094h18.436c-7.746-7.747 0-14.924 0-14.924-.039-.081-.069-.16-.107-.24-8.653 0-15.418 0-18.329 0-10.87 0-19.713 8.843-19.713 19.714v55.602c0 10.87 8.843 19.713 19.713 19.713h18.314c.073-.075.122-.123.122-.123z" fill="#3c58a0"/><path d="m189.382 344.956c-10.01 0-72.498 0-82.562 0-10.055 0-18.235 8.18-18.235 18.236v82.665c4.874 4.563 9.93 8.933 15.164 13.09v-95.755c0-1.689 1.382-3.071 3.071-3.071h30.014c2.052 0 3.716 1.663 3.716 3.715v96.482c0 2.052-1.664 3.715-3.716 3.715h-26.454c7.39 5.471 15.095 10.538 23.089 15.164h55.913c10.055 0 18.235-8.18 18.235-18.236v-97.771c0-10.054-8.18-18.234-18.235-18.234zm3.071 116.006c0 1.689-1.382 3.071-3.071 3.071h-29.952c-2.052 0-3.715-1.663-3.715-3.715v-96.482c0-2.052 1.663-3.715 3.715-3.715h29.952c1.689 0 3.071 1.382 3.071 3.071z" fill="#4f71b6"/><g fill="#3c58a0"><path d="m124.38 473.64c-.879-5.186 3.037-9.592 3.037-9.592-.019-.004-.034-.011-.053-.015h-16.984c4.545 3.364 9.223 6.557 14 9.607z"/><path d="m103.749 363.191c0-1.689 1.382-3.071 3.071-3.071h19.43c-7.188-7.188-2.406-13.315-.606-15.164-8.896 0-15.97 0-18.825 0-10.055 0-18.235 8.18-18.235 18.236v82.665c4.874 4.563 9.93 8.933 15.164 13.09v-95.756z"/></g></g></svg>