<?xml version="1.0"?>
<svg xmlns="http://www.w3.org/2000/svg" xmlns:xlink="http://www.w3.org/1999/xlink" xmlns:svgjs="http://svgjs.com/svgjs" version="1.1" width="512" height="512" x="0" y="0" viewBox="0 0 511.27 511.27" style="enable-background:new 0 0 512 512" xml:space="preserve" class=""><g><g xmlns="http://www.w3.org/2000/svg"><g><g><g><path d="m480.232 135.414-28.815-42.538c-46.776-55.988-117.12-91.606-195.782-91.606-98.131 0-158.58 55.352-158.747 55.445 0 0-2.513 3.137-2.983 5.222-3.818 16.948-7.385 39.663-7.385 56.238 0 140.833 118.763 254.972 259.596 254.972 54.231 0 114.568-25.992 154.949-57.243.903-.699 3.769-5.396 3.769-5.396.178-1.087 5.8-23.477 5.8-54.239.001-43.729-11.006-84.887-30.402-120.855z" fill="#80b4fb" data-original="#c1f8f4" style="" class=""/></g></g><g><g><path d="m346.094 365.949c-140.833 0-255-114.167-255-255 0-18.615 2.008-36.753 5.795-54.234-21.008 16.736-39.317 36.72-54.164 59.192l-28.815 58.964c-8.609 25.562-13.275 52.936-13.275 81.399 0 28.468 4.665 55.845 13.273 81.41l28.816 58.969c5.391 8.16 11.239 15.993 17.508 23.46l188.678 56.102 202.124-56.109 29.199-42.992c11.109-20.609 19.48-42.962 24.602-66.603-43.56 34.697-98.725 55.442-158.741 55.442z" fill="#79b2ff" data-original="#93ede7" style="" class=""/></g></g></g><g><g><path d="m413.126 3.297c-53.705 3.921-101.095 36.566-123.898 85.347l-7.958 17.025c-13.21 28.26 11.074 59.706 41.731 53.936.354-.067.709-.135 1.064-.204 20.945-4.079 42.683-12.407 58.853-28.576 43.557-43.558 30.208-127.528 30.208-127.528z" fill="#aad540" data-original="#aad540" style=""/></g></g><g><g><g><path d="m354.758 31.617c15.805-15.805 36.874-24.197 57.391-28.462-9.484-1.319-85.748-10.452-126.551 30.351-43.558 43.558-30.209 127.528-30.209 127.528s33.198 5.278 68.675-1.632c-1.392-10.103-10.375-86.716 30.694-127.785z" fill="#8bc852" data-original="#8bc852" style=""/></g></g></g><g><g><g><g><path d="m248.909 408.756c-7.957 0-14.408-6.451-14.408-14.408v-379.94c.001-7.957 6.451-14.408 14.408-14.408s14.408 6.451 14.408 14.408v379.941c0 7.957-6.451 14.407-14.408 14.407z" fill="#4f8980" data-original="#4f8980" style=""/></g></g></g></g><g><g><path d="m413.382 420.112c-25.443 0-45.95-20.804-45.633-46.245.003-.239.005-.479.005-.719 0-30.972-25.107-56.079-56.079-56.079h-25.112l-17.623.751c-75.596 3.221-131.383 71.785-119.164 146.457l2.92 17.845h221.322c29.513-15.497 55.692-36.604 77.026-62.01z" fill="#664545" data-original="#664545" style=""/></g></g><g><g><path d="m214.292 137.746c-38.21-38.21-111.87-26.5-111.87-26.5s.018.26.06.757c4.976 58.038 65.642 93.922 118.988 70.527l14.629-6.416c-4.216-13.978-11.024-27.585-21.807-38.368z" fill="#8bc852" data-original="#8bc852" style=""/></g></g><g><g><g><path d="m235.95 175.623c-.053.369-.083.562-.083.562s-73.66 11.71-111.87-26.5c-10.657-10.657-17.431-24.072-21.658-37.877-.982 6.867-9.676 75.049 26.583 111.308 38.21 38.21 111.87 26.5 111.87 26.5s6.088-38.302-4.842-73.993z" fill="#5ea55c" data-original="#5ea55c" style="" class=""/></g></g></g><g><g><g><path d="m182.902 480.101c-16.035 0-29.036-12.988-29.056-29.018.021-17.108 13.896-30.971 31.009-30.971 25.452 0 45.943-20.821 45.633-46.272-.003-.23-.004-.461-.004-.692 0-30.972 25.107-56.079 56.079-56.079h-104.007c-30.971 0-56.079 25.107-56.079 56.079 0 .302.003.604.007.906.383 25.366-20.266 46.058-45.636 46.058h-20.62c46.777 55.73 116.954 91.158 195.407 91.158 44.108 0 85.8-11.261 122.202-31.169z" fill="#523838" data-original="#523838" style="" class=""/></g></g></g><g><g><path d="m154.603 233.854c-40.947 2.99-77.079 27.879-94.464 65.072l-6.068 12.981c-10.072 21.547 8.443 45.522 31.817 41.123.27-.051.54-.103.811-.155 15.969-3.11 32.543-9.459 44.872-21.788 33.209-33.211 23.032-97.233 23.032-97.233z" fill="#aad540" data-original="#aad540" style=""/></g></g><g><g><g><path d="m110.101 255.446c12.05-12.05 28.114-18.449 43.757-21.7-7.231-1.005-65.378-7.969-96.487 23.141-33.21 33.21-23.032 97.232-23.032 97.232s25.312 4.024 52.36-1.244c-1.061-7.704-7.911-66.117 23.402-97.429z" fill="#8bc852" data-original="#8bc852" style=""/></g></g></g><g><g><path d="m13.909 337.68c7.075 21.015 16.814 40.804 28.815 58.969v-280.741c-12 18.163-21.74 37.951-28.815 58.964z" fill="#4f8980" data-original="#4f8980" style=""/></g></g><g><g><path d="m451.417 419.645c10.956-13.108 20.629-27.347 28.815-42.534v-241.697c-8.179-15.168-17.85-29.413-28.815-42.538z" fill="#4f8980" data-original="#4f8980" style=""/></g></g><g><g><path d="m429.045 214.182c-36.679-36.679-107.389-25.438-107.389-25.438s.017.249.058.726c4.777 55.713 63.012 90.159 114.222 67.702l14.043-6.159c-4.048-13.417-10.582-26.479-20.934-36.831z" fill="#8bc852" data-original="#8bc852" style=""/></g></g><g><g><g><path d="m449.836 250.542c-.051.355-.08.539-.08.539s-70.71 11.241-107.389-25.438c-10.23-10.23-16.732-23.108-20.791-36.36-.943 6.592-9.289 72.043 25.518 106.85 36.679 36.679 107.389 25.438 107.389 25.438s5.845-36.767-4.647-71.029z" fill="#5ea55c" data-original="#5ea55c" style="" class=""/></g></g></g><g><g><path d="m253.616 373.821h-34.583c-5.523 0-10-4.477-10-10s4.477-10 10-10h34.583c5.523 0 10 4.477 10 10s-4.477 10-10 10z" fill="#523838" data-original="#523838" style="" class=""/></g></g><g><g><path d="m303.26 373.821h-14.977c-5.523 0-10-4.477-10-10s4.477-10 10-10h14.977c5.523 0 10 4.477 10 10s-4.477 10-10 10z" fill="#523838" data-original="#523838" style="" class=""/></g></g><g><g><path d="m288.283 420.889h-39.374c-5.523 0-10-4.477-10-10s4.477-10 10-10h39.374c5.523 0 10 4.477 10 10s-4.477 10-10 10z" fill="#523838" data-original="#523838" style="" class=""/></g></g><g><g><path d="m228.907 463.458h-37.351c-5.523 0-10-4.477-10-10s4.477-10 10-10h37.351c5.523 0 10 4.477 10 10s-4.477 10-10 10z" fill="#523838" data-original="#523838" style="" class=""/></g></g><g><g><path d="m354.944 463.458h-24.067c-5.523 0-10-4.477-10-10s4.477-10 10-10h24.067c5.523 0 10 4.477 10 10s-4.477 10-10 10z" fill="#523838" data-original="#523838" style="" class=""/></g></g></g></g></svg>
