<?xml version="1.0"?>
<svg xmlns="http://www.w3.org/2000/svg" xmlns:xlink="http://www.w3.org/1999/xlink" xmlns:svgjs="http://svgjs.com/svgjs" version="1.1" width="512" height="512" x="0" y="0" viewBox="0 0 512 512" style="enable-background:new 0 0 512 512" xml:space="preserve" class=""><g><g xmlns="http://www.w3.org/2000/svg"><path d="m512 256c0 45.39-11.82 88.02-32.53 124.98-26.97 48.12-69.03 86.64-119.77 109.14-31.7 14.07-66.79 21.88-103.7 21.88s-72-7.81-103.7-21.88c-33.13-14.69-11.998-71.886-35.948-98.457-12.72-14.109-74.452 6.027-83.812-10.663 0-.01-.01-.01-.01-.02-20.71-36.96-32.53-79.59-32.53-124.98 0-141.38 114.62-256 256-256s256 114.62 256 256z" fill="#80b4fb" data-original="#ffe04a" style="" class=""/><g><path d="m408.993 165.916h-305.986v-86.528c0-22.726 18.489-41.215 41.215-41.215h223.555c22.726 0 41.215 18.489 41.215 41.215v86.528zm-285.986-20h265.985v-66.528c0-11.698-9.517-21.215-21.215-21.215h-223.554c-11.698 0-21.215 9.517-21.215 21.215v66.528z" fill="#685e68" data-original="#685e68" style=""/><path d="m348.304 71.783h-184.608c-12.934 0-23.42-10.485-23.42-23.42v-4.704c0-12.934 10.485-23.42 23.42-23.42h184.609c12.934 0 23.42 10.485 23.42 23.42v4.704c-.001 12.934-10.486 23.42-23.421 23.42z" fill="#aa6a51" data-original="#aa6a51" style="" class=""/><path d="m371.724 43.663v4.7c0 12.94-10.48 23.42-23.42 23.42h-184.6c-12.94 0-23.42-10.48-23.42-23.42v-4.7c0-2.3.33-4.52.96-6.62 2.85 9.7 11.82 16.79 22.46 16.79h184.6c10.64 0 19.61-7.09 22.46-16.79.63 2.1.96 4.32.96 6.62z" fill="#935b50" data-original="#935b50" style="" class=""/><path d="m479.47 160.9v285.3c0 24.25-19.67 43.92-43.93 43.92h-283.24c-50.74-22.5-92.8-61.02-119.77-109.14v-220.08z" fill="#aa6a51" data-original="#aa6a51" style="" class=""/><g fill="#935b50"><path d="m65.79 160.9v266.44c-12.72-14.11-23.89-29.65-33.25-46.34v-220.1z" fill="#935b50" data-original="#935b50" style="" class=""/><path d="m479.465 160.903v123.5c-4.14 2.25-8.89 3.53-13.93 3.53h-419.07c-5.04 0-9.79-1.28-13.93-3.53v-123.5z" fill="#935b50" data-original="#935b50" style="" class=""/><path d="m200.531 429.597h-115.532c-14.378 0-26.034-11.656-26.034-26.034v-149.548h167.601v149.547c0 14.379-11.656 26.035-26.035 26.035z" fill="#935b50" data-original="#935b50" style="" class=""/></g><path d="m215.828 429.597h-115.532c-14.378 0-26.034-11.656-26.034-26.034v-149.548h167.601v149.547c-.001 14.379-11.657 26.035-26.035 26.035z" fill="#bc7c63" data-original="#bc7c63" style="" class=""/><path d="m123.242 429.593h-22.94c-14.38 0-26.04-11.65-26.04-26.03v-149.55h22.95v149.55c0 14.38 11.65 26.03 26.03 26.03z" fill="#aa6a51" data-original="#aa6a51" style="" class=""/><path d="m396.407 429.597h-115.532c-14.378 0-26.034-11.656-26.034-26.034v-149.548h167.601v149.547c-.001 14.379-11.657 26.035-26.035 26.035z" fill="#935b50" data-original="#935b50" style="" class=""/><path d="m411.704 429.597h-115.532c-14.378 0-26.034-11.656-26.034-26.034v-149.548h167.601v149.547c-.001 14.379-11.657 26.035-26.035 26.035z" fill="#bc7c63" data-original="#bc7c63" style="" class=""/><path d="m319.118 429.593h-22.94c-14.38 0-26.04-11.65-26.04-26.03v-149.55h22.95v149.55c0 14.38 11.65 26.03 26.03 26.03z" fill="#aa6a51" data-original="#aa6a51" style="" class=""/><path d="m465.536 266.652h-419.072c-16.142 0-29.228-13.086-29.228-29.228v-101.164c0-16.142 13.086-29.228 29.228-29.228h419.073c16.142 0 29.228 13.086 29.228 29.228v101.163c-.001 16.143-13.086 29.229-29.229 29.229z" fill="#aa6a51" data-original="#aa6a51" style="" class=""/><path d="m82.375 266.65h-35.92c-16.14 0-29.22-13.09-29.22-29.23v-101.16c0-16.14 13.08-29.23 29.22-29.23h35.92c-16.14 0-29.23 13.09-29.23 29.23v101.16c.001 16.14 13.091 29.23 29.23 29.23z" fill="#935b50" data-original="#935b50" style="" class=""/><path d="m206.447 195.987c0-27.349-22.69-49.398-50.272-48.349-25.067.953-45.495 21.372-46.461 46.438-.549 14.245 5.069 27.178 14.392 36.363 5.183 5.105 8.017 12.131 8.017 19.405v112.247c0 14.325 11.613 25.938 25.938 25.938 14.325 0 25.938-11.613 25.938-25.938v-112.051c0-7.325 2.783-14.449 8.004-19.588 8.914-8.773 14.444-20.97 14.444-34.465z" fill="#bc7c63" data-original="#bc7c63" style="" class=""/><path d="m164.544 387.214c-2.08.54-4.25.82-6.49.82-14.32 0-25.93-11.62-25.93-25.94v-112.25c0-7.27-2.84-14.3-8.02-19.4-9.33-9.19-14.94-22.12-14.39-36.37.96-25.06 21.39-45.48 46.46-46.43 2.85-.11 5.65.03 8.37.4-22.93 3.1-40.96 22.52-41.87 46.03-.54 14.25 5.07 27.18 14.4 36.37 5.18 5.1 8.01 12.13 8.01 19.4v112.25c0 12.08 8.27 22.24 19.46 25.12z" fill="#aa6a51" data-original="#aa6a51" style="" class=""/><path d="m190.149 303.231h-64.173c-7.163 0-12.969-5.806-12.969-12.969 0-7.163 5.806-12.969 12.969-12.969h64.173c7.163 0 12.969 5.806 12.969 12.969 0 7.163-5.807 12.969-12.969 12.969z" fill="#935b50" data-original="#935b50" style="" class=""/><circle cx="158.062" cy="355.108" fill="#935b50" r="9.976" data-original="#935b50" style="" class=""/><circle cx="158.062" cy="324.181" fill="#935b50" r="9.976" data-original="#935b50" style="" class=""/><path d="m402.323 195.987c0-27.349-22.69-49.398-50.272-48.349-25.067.953-45.495 21.372-46.461 46.438-.549 14.245 5.069 27.178 14.393 36.363 5.183 5.105 8.017 12.131 8.017 19.405v112.247c0 14.325 11.613 25.938 25.938 25.938 14.325 0 25.938-11.613 25.938-25.938v-112.051c0-7.325 2.783-14.449 8.004-19.588 8.913-8.773 14.443-20.97 14.443-34.465z" fill="#bc7c63" data-original="#bc7c63" style="" class=""/><path d="m360.42 387.214c-2.08.54-4.25.82-6.49.82-14.32 0-25.93-11.62-25.93-25.94v-112.25c0-7.27-2.84-14.3-8.02-19.4-9.33-9.19-14.94-22.12-14.39-36.37.96-25.06 21.39-45.48 46.46-46.43 2.85-.11 5.65.03 8.37.4-22.93 3.1-40.96 22.52-41.87 46.03-.54 14.25 5.07 27.18 14.4 36.37 5.18 5.1 8.01 12.13 8.01 19.4v112.25c0 12.08 8.27 22.24 19.46 25.12z" fill="#aa6a51" data-original="#aa6a51" style="" class=""/><path d="m386.025 303.231h-64.173c-7.163 0-12.969-5.806-12.969-12.969 0-7.163 5.806-12.969 12.969-12.969h64.173c7.163 0 12.969 5.806 12.969 12.969 0 7.163-5.807 12.969-12.969 12.969z" fill="#935b50" data-original="#935b50" style="" class=""/><circle cx="353.938" cy="355.108" fill="#935b50" r="9.976" data-original="#935b50" style="" class=""/><circle cx="353.938" cy="324.181" fill="#935b50" r="9.976" data-original="#935b50" style="" class=""/></g></g></g></svg>
