<svg id="Capa_1" enable-background="new 0 0 512 512" height="512" viewBox="0 0 512 512" width="512" xmlns="http://www.w3.org/2000/svg"><g><path d="m512 256c0 68.61-26.99 130.91-70.93 176.88-46.61 48.75-112.3 41.057-185.07 41.057-59.98 0-115.15-4.357-158.78-38.907-9.31-7.37-18.1 6.421-26.29-2.149-43.94-45.971-70.93-108.271-70.93-176.881s26.99-130.91 70.93-176.88c8.2-8.57 16.98-16.57 26.29-23.94 5.42-4.29 11.03-8.37 16.79-12.22 40.63-27.14 89.46-42.96 141.99-42.96s101.36 15.82 141.99 42.96c15.66 10.46 30.11 22.6 43.08 36.16 43.94 45.97 70.93 108.27 70.93 176.88z" fill="#80b4fb"/><path d="m441.07 42.96v389.92c-46.61 48.75-112.3 79.12-185.07 79.12s-138.46-30.37-185.07-79.12v-389.92z" fill="#545058"/><path d="m70.933 42.963h370.134v45.891h-370.134z" fill="#423f46"/><path d="m97.22 42.96v413.86c-9.31-7.37-18.1-15.37-26.29-23.94v-389.92z" fill="#423f46"/><path d="m449.887 75.887h-387.774c-10.827 0-19.604-8.777-19.604-19.604v-36.611c0-10.827 8.777-19.604 19.604-19.604h387.774c10.827 0 19.604 8.777 19.604 19.604v36.611c0 10.827-8.777 19.604-19.604 19.604z" fill="#6b696f"/><path d="m110.359 75.892h-48.25c-10.82 0-19.6-8.78-19.6-19.6v-36.62c0-10.82 8.78-19.6 19.6-19.6h48.25c-10.83 0-19.61 8.78-19.61 19.6v36.62c0 10.821 8.78 19.6 19.61 19.6z" fill="#545058"/><path d="m356.199 308.996h-200.398c-16.655 0-30.157-13.502-30.157-30.157v-137.88c0-16.655 13.502-30.157 30.157-30.157h200.398c16.655 0 30.157 13.502 30.157 30.157v137.88c0 16.655-13.502 30.157-30.157 30.157z" fill="#6b696f"/><path d="m155.801 283.996c-2.844 0-5.157-2.313-5.157-5.157v-56.969l8.339-15.962-8.339-7.981v-56.968c0-2.844 2.313-5.157 5.157-5.157h20.167l8.973 8.661 14.97-8.661h44.117l11.724 13.242 12.219-13.242h44.117l8.973 8.661 14.97-8.661h20.167c2.844 0 5.157 2.313 5.157 5.157v56.968l-15.152 10.641 15.152 13.301v56.969c0 2.844-2.313 5.157-5.157 5.157h-20.167l-10.445-4.596-13.498 4.596h-44.117l-10.224-4.596-13.719 4.596h-44.117l-10.667-4.596-13.276 4.596h-20.167z" fill="#423f46"/><g><path d="m175.968 135.802h23.943v148.194h-23.943z" fill="#faf7eb"/><g fill="#ebe6db"><path d="m175.968 135.802h23.943v17.321h-23.943z"/><path d="m175.968 135.802h8.973v148.194h-8.973z"/></g></g><g><path d="m312.089 135.802h23.943v148.194h-23.943z" fill="#faf7eb"/><g fill="#ebe6db"><path d="m312.089 135.802h23.943v17.321h-23.943z"/><path d="m312.089 135.802h8.973v148.194h-8.973z"/></g></g><g><path d="m244.028 104.543h23.943v210.712h-23.943z" fill="#faf7eb" transform="matrix(0 -1 1 0 46.101 465.899)"/><path d="m251.513 112.028h8.973v210.712h-8.973z" fill="#ebe6db" transform="matrix(0 -1 1 0 38.616 473.383)"/></g><g><path d="m244.029 135.802h23.943v148.194h-23.943z" fill="#faf7eb"/><g fill="#ebe6db"><path d="m244.029 135.802h23.943v17.321h-23.943z"/><path d="m244.029 135.802h8.973v148.194h-8.973z"/></g></g><path d="m370.429 443.01h-34.987c-8.796 0-15.927-7.131-15.927-15.927v-59.928c0-8.796 7.131-15.927 15.927-15.927h34.987c8.796 0 15.927 7.131 15.927 15.927v59.928c0 8.797-7.131 15.927-15.927 15.927z" fill="#6b696f"/><path d="m359.515 403.988c6.644-2.625 11.351-9.091 11.351-16.668 0-9.903-8.028-17.931-17.931-17.931s-17.931 8.028-17.931 17.931c0 7.577 4.707 14.043 11.351 16.668l-7.009 7.944c-4.429 5.02-.865 12.918 5.83 12.918h15.516c6.695 0 10.259-7.898 5.83-12.918z" fill="#423f46"/><g fill="#545058"><circle cx="428.007" cy="37.875" r="12.47"/><circle cx="359.204" cy="37.875" r="12.47"/><circle cx="290.401" cy="37.875" r="12.47"/><circle cx="221.599" cy="38.08" r="12.47"/><circle cx="152.796" cy="38.08" r="12.47"/><circle cx="83.993" cy="38.08" r="12.47"/></g><g fill="#423f46"><path d="m65.207 183.296c8.448 0 15.297-6.849 15.297-15.297v-48.551c0-8.448-6.849-15.297-15.297-15.297-8.448 0-15.297 6.849-15.297 15.297v48.551c0 8.448 6.848 15.297 15.297 15.297z"/><path d="m65.207 398.45c8.448 0 15.297-6.849 15.297-15.297v-48.551c0-8.448-6.849-15.297-15.297-15.297-8.448 0-15.297 6.849-15.297 15.297v48.551c0 8.448 6.848 15.297 15.297 15.297z"/></g></g></svg>