<svg id="Layer_2" enable-background="new 0 0 24 24" height="512" viewBox="0 0 24 24" width="512" xmlns="http://www.w3.org/2000/svg"><g><path d="m12 24c-6.617 0-12-5.383-12-12s5.383-12 12-12 12 5.383 12 12-5.383 12-12 12zm0-23c-6.065 0-11 4.935-11 11s4.935 11 11 11 11-4.935 11-11-4.935-11-11-11z"/></g><g><path d="m17.5 18c-.128 0-.256-.049-.354-.146l-5.5-5.5c-.093-.094-.146-.221-.146-.354v-7.5c0-.276.224-.5.5-.5s.5.224.5.5v7.293l5.354 5.354c.195.195.195.512 0 .707-.098.097-.226.146-.354.146z"/></g></svg>