<svg id="color_line" height="512" viewBox="0 0 74 74" width="512" xmlns="http://www.w3.org/2000/svg" data-name="color line"><rect fill="#eeefee" height="46.302" rx="3.008" width="68" x="3" y="13.849"/><path d="m71 16.86v40.28a3.013 3.013 0 0 1 -3.01 3.01h-.61v-39.79a3.013 3.013 0 0 0 -3.01-3.01h-61.37v-.49a3.013 3.013 0 0 1 3.01-3.01h61.98a3.013 3.013 0 0 1 3.01 3.01z" fill="#e1e6e9"/><g fill="#323c6b"><path d="m4.781 58.85a.5.5 0 0 1 -.354-.85l24.465-24.545a.5.5 0 0 1 .709.706l-24.465 24.539a.5.5 0 0 1 -.355.15z"/><path d="m69.536 59.19a.5.5 0 0 1 -.354-.147l-24.789-24.866a.5.5 0 0 1 .709-.706l24.789 24.866a.5.5 0 0 1 -.355.853z"/><path d="m37.012 39.682a2.72 2.72 0 0 1 -1.658-.563l-31.554-24.17a.5.5 0 0 1 .607-.794l31.556 24.171a1.7 1.7 0 0 0 2.1 0l31.524-24.186a.5.5 0 0 1 .609.793l-31.527 24.186a2.715 2.715 0 0 1 -1.657.563z"/><path d="m61.917 63.651h-9.834a.5.5 0 0 1 0-1h9.834a.5.5 0 0 1 0 1z"/><path d="m49.333 63.651h-1.166a.5.5 0 0 1 0-1h1.166a.5.5 0 0 1 0 1z"/><path d="m.565 14.833a.5.5 0 0 1 -.453-.71 6.529 6.529 0 0 1 5.9-3.774h2.905a.5.5 0 0 1 0 1h-2.909a5.524 5.524 0 0 0 -4.989 3.2.5.5 0 0 1 -.454.284z"/><path d="m12.333 11.349h-1a.5.5 0 0 1 0-1h1a.5.5 0 1 1 0 1z"/><path d="m67.992 60.651h-61.984a3.512 3.512 0 0 1 -3.508-3.508v-40.286a3.512 3.512 0 0 1 3.508-3.508h61.984a3.512 3.512 0 0 1 3.508 3.508v40.286a3.512 3.512 0 0 1 -3.508 3.508zm-61.984-46.302a2.511 2.511 0 0 0 -2.508 2.508v40.286a2.511 2.511 0 0 0 2.508 2.508h61.984a2.511 2.511 0 0 0 2.508-2.508v-40.286a2.511 2.511 0 0 0 -2.508-2.508z"/></g></svg>