<?xml version="1.0" encoding="iso-8859-1"?>
<!-- Generator: Adobe Illustrator 19.2.1, SVG Export Plug-In . SVG Version: 6.00 Build 0)  -->
<svg version="1.1" xmlns="http://www.w3.org/2000/svg" xmlns:xlink="http://www.w3.org/1999/xlink" x="0px" y="0px"
	 viewBox="0 0 32 32" style="enable-background:new 0 0 32 32;" xml:space="preserve">
<g id="Layer_23">
	<polygon style="fill:#95CC29;" points="25.999,16 19.999,24 24,24 24,32 28,32 28,24 31.999,24 	"/>
	<path style="fill:#666666;" d="M31.12,0.879c-0.195-0.195-0.426-0.353-0.67-0.489c-0.263-0.146-0.543-0.266-0.847-0.329
		C29.407,0.021,29.205,0,28.999,0h-26C2.792,0,2.59,0.021,2.394,0.061c-0.324,0.066-0.623,0.195-0.9,0.357
		c-0.224,0.131-0.436,0.279-0.617,0.46l0.001,0C0.335,1.422,0,2.172,0,3v20c0,0.828,0.335,1.578,0.878,2.121l0,0
		c0.181,0.182,0.393,0.33,0.617,0.46c0.277,0.162,0.575,0.291,0.9,0.357C2.59,25.979,2.792,26,2.999,26H18v-2H3.413l9.586-9.586
		l0.879,0.879c0.583,0.584,1.357,0.88,2.121,0.879c0.764,0.001,1.538-0.295,2.121-0.879l0.879-0.879l3.15,3.15l1.414-1.414
		L20.413,13L30,3.414V18h2V3C32,2.172,31.663,1.422,31.12,0.879L31.12,0.879z M2,22.586V3.414L11.586,13L2,22.586z M16.706,13.879
		c-0.198,0.197-0.448,0.292-0.707,0.293c-0.259-0.001-0.509-0.096-0.707-0.293L3.413,2h25.172L16.706,13.879z"/>
	<rect style="fill:none;" width="32" height="32"/>
</g>
<g id="Layer_1">
</g>
</svg>
