<svg height="512" viewBox="0 0 128 128" width="512" xmlns="http://www.w3.org/2000/svg"><path d="m120.7 32.12v63.76a7.02 7.02 0 0 1 -7 7h-99.4a7.02 7.02 0 0 1 -7-7v-63.76a7.016 7.016 0 0 1 7-7h99.4a7.016 7.016 0 0 1 7 7z" fill="#ebb150"/><path d="m119 100.44a6.974 6.974 0 0 1 -5.3 2.44h-99.4a6.974 6.974 0 0 1 -5.3-2.44l36.59-34.94 18.41-17.59 18.41 17.59z" fill="#d9a34a"/><path d="m119.16 27.75-36.75 37.75-14.64 15.02a5.247 5.247 0 0 1 -7.54 0l-14.64-15.02-36.75-37.75a6.979 6.979 0 0 1 5.46-2.63h99.4a6.979 6.979 0 0 1 5.46 2.63z" fill="#ffc766"/></svg>