<?xml version="1.0" standalone="no"?>
<!DOCTYPE svg PUBLIC "-//W3C//DTD SVG 20010904//EN"
 "http://www.w3.org/TR/2001/REC-SVG-20010904/DTD/svg10.dtd">
<svg version="1.0" xmlns="http://www.w3.org/2000/svg"
 width="700.000000pt" height="700.000000pt" viewBox="0 0 700.000000 700.000000"
 preserveAspectRatio="xMidYMid meet">
<metadata>
Created by potrace 1.14, written by Peter Selinger 2001-2017
</metadata>
<g transform="translate(0.000000,700.000000) scale(0.100000,-0.100000)"
fill="#000000" stroke="none">
<path d="M3476 6052 c-11 -2 -67 -34 -125 -70 -178 -110 -347 -214 -541 -333
-102 -62 -390 -239 -640 -392 -250 -154 -485 -299 -522 -321 -488 -296 -673
-414 -689 -440 -19 -31 -18 -78 2 -102 28 -34 63 -41 192 -40 l127 1 1 -30 c0
-16 2 -46 4 -65 13 -156 117 -275 275 -315 l45 -11 2 -107 c2 -85 6 -114 23
-147 20 -40 90 -100 117 -100 11 0 12 -18 9 -87 -3 -49 -8 -144 -11 -213 -3
-69 -8 -154 -10 -190 -3 -36 -7 -119 -10 -185 -6 -138 -9 -189 -30 -600 -7
-132 -10 -192 -20 -398 -4 -77 -9 -155 -10 -175 -2 -21 -4 -51 -4 -68 l-1 -31
-108 -5 c-88 -4 -117 -9 -162 -30 -81 -38 -134 -89 -172 -166 -33 -66 -33 -68
-36 -235 -4 -184 2 -213 46 -239 24 -14 258 -15 2262 -16 1377 0 2247 3 2266
9 58 18 67 51 62 244 -3 159 -5 174 -30 227 -34 73 -104 143 -176 176 -47 21
-76 26 -164 30 -91 4 -108 7 -109 21 0 9 -2 41 -4 71 -1 30 -6 118 -10 195
-11 220 -18 248 -70 261 -77 19 -135 -31 -130 -111 2 -16 6 -93 9 -170 4 -77
9 -168 11 -202 l4 -63 -300 0 -301 0 7 153 c3 83 8 179 10 212 3 33 7 114 10
180 3 66 7 156 10 200 2 44 7 136 10 205 3 69 7 150 10 180 2 30 7 123 10 205
4 83 8 173 10 200 2 28 7 115 11 195 3 80 7 159 8 175 l2 30 202 3 202 2 1
-47 c4 -164 18 -311 31 -332 17 -28 62 -45 99 -37 60 12 80 51 74 147 -3 41
-7 120 -9 175 l-5 102 25 6 c14 4 45 27 69 52 50 51 59 85 58 222 0 45 2 82 6
83 84 9 141 34 205 90 77 68 113 163 116 299 l0 25 127 -1 c143 -1 173 8 198
56 16 31 12 72 -9 99 -10 13 -67 52 -111 77 -29 16 -1994 1222 -2035 1249
-120 78 -349 213 -370 217 -14 3 -34 3 -44 0z m74 -233 c14 -10 185 -115 380
-235 513 -313 910 -557 1025 -629 132 -82 268 -165 309 -190 160 -95 346 -211
346 -215 0 -3 -949 -5 -2110 -5 -1160 0 -2110 2 -2110 5 0 3 96 63 213 134
237 144 1471 902 1727 1061 93 57 172 99 180 97 8 -3 26 -13 40 -23z m1962
-1468 c13 -1 16 -10 13 -54 -3 -67 -25 -110 -72 -142 l-38 -25 -1922 3 -1922
2 -28 21 c-42 31 -66 80 -68 138 -1 28 -1 53 0 56 3 4 3978 5 4037 1z m-3006
-503 l2 -86 -353 -1 -353 0 -4 52 c-1 29 -2 68 0 88 l3 36 352 -1 352 -1 1
-87z m445 83 c0 -3 2 -51 3 -106 2 -72 7 -110 20 -137 21 -43 76 -95 110 -104
20 -5 23 -11 20 -52 -1 -26 -5 -110 -9 -187 -3 -77 -8 -171 -10 -210 -2 -38
-7 -124 -10 -190 -9 -172 -14 -267 -20 -375 -3 -52 -7 -144 -10 -205 -3 -60
-7 -141 -9 -180 -2 -38 -7 -135 -12 -215 -4 -80 -8 -163 -9 -185 -2 -22 -3
-66 -4 -97 l-1 -58 -184 0 -184 0 1 28 c0 15 -3 86 -7 157 -13 243 -20 377
-31 600 -3 55 -7 143 -10 195 -3 52 -7 142 -10 200 -3 58 -8 150 -11 205 -3
55 -7 129 -9 165 -7 171 -17 364 -19 378 -2 10 15 24 43 39 82 41 111 105 111
249 l0 91 125 0 c69 1 125 -2 126 -6z m900 0 c3 -23 4 -139 1 -153 -4 -15 -36
-16 -353 -17 -263 0 -349 3 -350 12 -3 35 -5 153 -3 158 4 8 704 8 705 0z
m450 -40 c0 -25 0 -66 -1 -92 -3 -88 43 -173 113 -205 32 -15 40 -24 39 -44 0
-3 -3 -77 -7 -165 -3 -88 -8 -176 -10 -195 -2 -19 -6 -100 -10 -180 -3 -80 -8
-172 -10 -205 -2 -33 -7 -118 -10 -190 -3 -71 -8 -159 -10 -195 -2 -36 -6
-126 -10 -200 -3 -74 -8 -162 -10 -195 -4 -58 -17 -326 -18 -372 -1 -23 -1
-23 -184 -23 l-183 0 -1 68 c-1 37 -2 81 -4 97 -1 17 -6 95 -9 175 -4 80 -9
177 -11 215 -2 39 -7 120 -10 180 -6 117 -12 236 -20 388 -3 50 -7 142 -10
202 -4 61 -8 142 -10 180 -2 39 -7 133 -10 210 -4 77 -8 159 -10 183 -3 40 -1
44 35 62 48 24 95 82 107 129 5 20 9 74 8 121 0 47 3 88 8 91 4 3 62 6 128 6
l119 0 1 -46z m900 22 c0 -12 1 -39 1 -58 0 -19 -1 -48 -1 -64 l-1 -29 -337
-1 c-186 0 -345 2 -355 5 -13 4 -16 19 -15 88 l1 83 353 0 353 0 1 -24z
m-2850 -350 c4 -19 5 -45 24 -403 4 -78 14 -270 20 -400 3 -52 7 -135 10 -185
5 -98 11 -213 20 -400 4 -66 8 -149 10 -185 2 -36 7 -131 11 -212 l7 -148
-302 0 -301 0 5 68 c2 37 7 117 10 177 3 61 8 148 10 195 3 47 8 132 10 190 8
181 15 312 20 385 2 39 7 135 11 215 3 80 7 170 9 200 2 30 7 120 11 200 4 80
8 161 9 180 2 19 3 56 4 83 l1 47 200 0 c110 0 201 -3 201 -7z m1350 -10 c1
-10 2 -34 4 -53 1 -19 5 -102 9 -185 4 -82 9 -177 11 -210 2 -33 7 -118 10
-190 3 -71 7 -161 10 -200 2 -38 7 -124 10 -190 3 -66 8 -151 10 -190 2 -38 7
-128 10 -200 4 -71 8 -161 10 -200 2 -38 7 -123 10 -187 l6 -118 -301 0 -301
0 6 118 c3 64 8 146 10 182 2 36 7 121 10 190 3 69 8 161 10 205 2 44 7 136
10 205 3 69 8 150 10 180 2 30 7 120 10 200 4 80 8 170 10 200 2 30 7 118 10
195 6 127 12 238 14 258 1 4 91 7 201 7 183 0 200 -1 201 -17z m1824 -2128
c77 -27 108 -92 103 -215 l-3 -75 -2115 -1 c-1163 0 -2121 2 -2127 4 -23 7
-17 158 8 208 24 50 37 62 85 79 53 18 3996 18 4049 0z"/>
<path d="M5129 2782 c-28 -25 -33 -36 -34 -78 -2 -66 12 -102 47 -124 66 -40
140 4 143 87 4 85 -24 129 -87 140 -29 4 -41 0 -69 -25z"/>
</g>
</svg>
